<svg id="svg" version="1.1" xmlns="http://www.w3.org/2000/svg" xmlns:xlink="http://www.w3.org/1999/xlink" width="400" height="400" viewBox="0, 0, 400,400"><g id="svgg"><path id="path0" d="M154.000 61.200 C 154.000 61.427,152.833 61.600,151.300 61.601 C 147.093 61.603,141.461 62.381,140.956 63.030 C 140.712 63.343,139.947 63.600,139.256 63.600 C 138.565 63.600,138.000 63.759,138.000 63.954 C 138.000 64.149,137.010 64.432,135.800 64.583 C 134.590 64.734,133.600 65.010,133.600 65.196 C 133.600 65.383,132.835 65.720,131.900 65.946 C 128.954 66.657,127.200 67.379,127.200 67.880 C 127.200 68.146,126.570 68.482,125.800 68.626 C 125.030 68.771,124.400 69.029,124.400 69.201 C 124.400 69.373,123.905 69.637,123.300 69.787 C 121.332 70.278,119.426 71.341,118.107 72.684 C 117.396 73.408,116.479 74.000,116.069 74.000 C 115.659 74.000,114.998 74.360,114.600 74.800 C 114.202 75.240,113.637 75.600,113.346 75.600 C 113.054 75.600,112.706 76.034,112.573 76.565 C 112.426 77.151,111.939 77.629,111.335 77.781 C 110.349 78.028,100.800 87.165,100.800 87.861 C 100.800 88.060,100.440 88.530,100.000 88.907 C 99.560 89.284,99.200 89.954,99.200 90.396 C 99.200 90.838,99.048 91.200,98.861 91.200 C 98.322 91.200,96.800 92.647,96.800 93.159 C 96.800 93.416,96.530 93.729,96.200 93.855 C 95.870 93.982,95.600 94.413,95.600 94.814 C 95.600 95.215,95.330 95.813,95.000 96.143 C 94.670 96.473,94.400 96.870,94.400 97.026 C 94.400 97.181,93.950 97.725,93.400 98.235 C 92.850 98.745,92.400 99.530,92.400 99.981 C 92.400 100.431,92.234 100.800,92.032 100.800 C 91.829 100.800,91.545 101.340,91.400 102.000 C 91.255 102.660,91.005 103.200,90.844 103.200 C 90.683 103.200,90.321 104.100,90.039 105.200 C 89.757 106.300,89.318 107.201,89.063 107.203 C 88.605 107.206,87.602 108.969,87.598 109.780 C 87.596 110.011,87.363 110.650,87.080 111.200 C 86.796 111.750,86.319 113.235,86.018 114.500 C 85.718 115.765,85.321 116.800,85.136 116.800 C 84.951 116.800,84.800 117.411,84.800 118.157 C 84.800 118.952,84.568 119.604,84.240 119.729 C 83.932 119.848,83.551 120.722,83.395 121.672 C 83.238 122.622,82.969 123.580,82.796 123.800 C 82.624 124.020,82.278 125.540,82.026 127.178 C 81.774 128.816,81.418 130.346,81.234 130.578 C 81.049 130.810,80.775 132.022,80.624 133.272 C 80.473 134.522,80.091 135.759,79.775 136.021 C 79.459 136.283,79.200 136.836,79.200 137.249 C 79.200 137.662,79.043 138.000,78.851 138.000 C 78.660 138.000,78.273 139.755,77.993 141.900 C 77.712 144.045,77.324 145.904,77.131 146.030 C 76.937 146.157,76.669 147.192,76.534 148.330 C 76.399 149.469,76.134 150.400,75.944 150.400 C 75.755 150.400,75.600 150.925,75.600 151.567 C 75.600 152.208,75.406 152.798,75.169 152.877 C 74.715 153.028,73.638 157.453,73.614 159.267 C 73.606 159.853,73.426 160.393,73.214 160.467 C 73.001 160.540,72.704 161.680,72.553 163.000 C 72.402 164.320,72.121 165.504,71.929 165.630 C 71.736 165.757,71.469 166.792,71.334 167.930 C 71.187 169.170,70.891 170.000,70.596 170.000 C 70.289 170.000,69.997 170.939,69.821 172.495 C 69.666 173.868,69.329 175.120,69.073 175.279 C 68.390 175.701,68.415 187.272,69.100 187.500 C 69.375 187.592,69.600 187.997,69.600 188.401 C 69.600 189.562,70.037 190.400,70.643 190.400 C 70.949 190.400,71.200 190.780,71.200 191.244 C 71.200 192.097,74.402 195.600,75.181 195.600 C 75.411 195.600,75.600 195.870,75.600 196.200 C 75.600 196.530,75.797 196.800,76.037 196.800 C 76.277 196.800,76.931 197.160,77.491 197.600 C 78.050 198.040,79.009 198.400,79.621 198.400 C 80.233 198.400,80.797 198.590,80.874 198.823 C 80.956 199.067,82.915 199.346,85.508 199.483 C 87.978 199.613,90.000 199.873,90.000 200.060 C 90.000 200.247,91.241 200.400,92.757 200.400 C 94.670 200.400,95.576 200.561,95.717 200.927 C 95.868 201.321,98.241 201.586,105.060 201.971 C 110.087 202.255,114.380 202.627,114.600 202.798 C 114.820 202.968,117.835 203.238,121.300 203.396 C 124.765 203.555,127.600 203.845,127.600 204.042 C 127.600 204.239,129.580 204.400,132.000 204.400 C 134.420 204.400,136.400 204.241,136.400 204.047 C 136.400 203.852,137.570 203.568,139.000 203.415 C 140.430 203.262,141.600 202.978,141.600 202.784 C 141.600 202.591,142.287 202.226,143.127 201.974 C 143.967 201.723,145.252 200.996,145.982 200.358 C 146.711 199.721,147.531 199.200,147.804 199.200 C 148.350 199.200,151.200 196.721,151.200 196.246 C 151.200 196.082,152.100 195.019,153.200 193.884 C 154.300 192.749,155.200 191.507,155.200 191.124 C 155.200 190.741,155.560 190.235,156.000 190.000 C 156.440 189.765,156.800 189.351,156.800 189.082 C 156.800 188.813,157.160 188.368,157.600 188.093 C 158.040 187.818,158.400 187.407,158.400 187.180 C 158.400 186.431,170.158 174.400,170.889 174.400 C 171.128 174.400,172.000 173.725,172.826 172.900 C 174.889 170.839,175.472 170.400,176.149 170.400 C 176.469 170.400,177.380 169.770,178.173 169.000 C 178.966 168.230,179.859 167.600,180.158 167.600 C 180.457 167.600,180.920 167.337,181.187 167.015 C 181.454 166.694,182.061 166.314,182.536 166.171 C 184.373 165.618,186.000 164.686,186.000 164.186 C 186.000 163.899,186.540 163.545,187.200 163.400 C 187.860 163.255,188.400 162.971,188.400 162.768 C 188.400 162.566,188.715 162.398,189.100 162.396 C 189.485 162.394,190.700 161.950,191.800 161.409 C 192.900 160.868,194.031 160.419,194.313 160.413 C 194.594 160.406,194.929 160.130,195.055 159.800 C 195.182 159.470,195.626 159.200,196.043 159.200 C 196.459 159.200,196.800 159.038,196.800 158.840 C 196.800 158.642,197.745 158.258,198.900 157.988 C 200.055 157.717,201.180 157.362,201.400 157.200 C 201.620 157.037,202.475 156.783,203.300 156.634 C 204.125 156.485,204.800 156.192,204.800 155.982 C 204.800 155.772,205.160 155.600,205.600 155.600 C 206.040 155.600,206.400 155.366,206.400 155.080 C 206.400 154.741,207.481 154.383,209.500 154.053 C 211.205 153.775,212.929 153.369,213.331 153.151 C 213.732 152.933,214.947 152.650,216.031 152.522 C 217.114 152.394,218.000 152.148,218.000 151.976 C 218.000 151.804,219.170 151.538,220.600 151.385 C 222.270 151.206,223.200 150.927,223.200 150.605 C 223.200 150.277,224.168 150.008,226.000 149.827 C 227.540 149.676,228.800 149.399,228.800 149.213 C 228.800 149.027,230.510 148.746,232.600 148.590 C 234.690 148.433,236.400 148.164,236.400 147.991 C 236.400 147.818,238.290 147.548,240.600 147.391 C 242.910 147.233,244.800 146.946,244.800 146.752 C 244.800 146.558,246.240 146.400,248.000 146.400 C 249.867 146.400,251.200 146.233,251.200 146.000 C 251.200 145.757,253.000 145.600,255.800 145.600 C 258.600 145.600,260.400 145.443,260.400 145.200 C 260.400 144.941,265.133 144.800,273.800 144.800 C 282.467 144.800,287.200 144.941,287.200 145.200 C 287.200 145.440,288.800 145.600,291.200 145.600 C 293.600 145.600,295.200 145.760,295.200 146.000 C 295.200 146.229,296.400 146.400,298.000 146.400 C 299.540 146.400,300.800 146.554,300.800 146.743 C 300.800 146.932,302.822 147.214,305.293 147.370 C 307.765 147.527,309.880 147.797,309.993 147.970 C 310.107 148.144,311.998 148.416,314.197 148.574 C 316.395 148.733,318.375 149.012,318.597 149.196 C 318.818 149.379,320.485 149.658,322.300 149.816 C 324.527 150.010,325.600 150.266,325.600 150.605 C 325.600 150.929,326.555 151.209,328.300 151.395 C 329.785 151.554,331.128 151.889,331.285 152.142 C 331.682 152.778,346.708 152.786,347.113 152.150 C 347.271 151.903,347.985 151.574,348.700 151.418 C 349.424 151.261,350.000 150.885,350.000 150.568 C 350.000 150.256,350.276 150.000,350.613 150.000 C 350.949 150.000,351.324 149.741,351.446 149.424 C 351.567 149.108,352.184 148.735,352.815 148.597 C 353.499 148.447,354.073 147.999,354.235 147.491 C 354.384 147.021,354.707 146.410,354.953 146.133 C 356.102 144.835,356.400 144.405,356.400 144.044 C 356.400 143.829,356.737 143.547,357.149 143.416 C 357.664 143.253,357.966 142.666,358.118 141.532 C 358.240 140.626,358.511 139.776,358.721 139.642 C 358.931 139.509,359.232 138.455,359.389 137.300 C 359.546 136.145,359.824 135.200,360.006 135.200 C 360.188 135.200,360.462 134.030,360.615 132.600 C 360.798 130.888,361.069 130.000,361.409 130.000 C 361.729 130.000,362.032 129.202,362.207 127.900 C 362.363 126.745,362.627 125.620,362.795 125.400 C 362.964 125.180,363.226 123.965,363.379 122.700 C 363.532 121.435,363.807 120.400,363.990 120.400 C 364.172 120.400,364.447 119.320,364.600 118.000 C 364.753 116.680,365.041 115.600,365.239 115.600 C 365.438 115.600,365.600 114.970,365.600 114.200 C 365.600 113.430,365.780 112.800,366.000 112.800 C 366.220 112.800,366.400 112.440,366.400 112.000 C 366.400 111.560,366.559 111.200,366.753 111.200 C 366.948 111.200,367.232 110.030,367.385 108.600 C 367.538 107.170,367.804 106.000,367.976 106.000 C 368.148 106.000,368.397 105.081,368.530 103.958 C 368.663 102.834,368.936 101.709,369.137 101.458 C 369.337 101.206,369.626 99.965,369.779 98.700 C 369.932 97.435,370.293 96.164,370.581 95.876 C 370.868 95.589,371.236 94.554,371.397 93.577 C 371.558 92.600,371.833 91.620,372.007 91.400 C 372.181 91.180,372.455 89.920,372.616 88.600 C 372.777 87.280,373.109 86.072,373.354 85.915 C 374.016 85.492,373.966 72.606,373.300 71.940 C 373.025 71.665,372.800 71.110,372.800 70.707 C 372.800 70.305,372.530 69.871,372.200 69.745 C 371.870 69.618,371.600 69.252,371.600 68.931 C 371.600 68.270,367.774 64.400,367.120 64.400 C 366.885 64.400,366.312 63.975,365.847 63.455 C 364.871 62.365,362.139 61.600,359.223 61.600 C 358.110 61.600,357.200 61.420,357.200 61.200 C 357.200 60.934,323.067 60.800,255.600 60.800 C 188.133 60.800,154.000 60.934,154.000 61.200 M358.038 75.900 C 360.258 78.279,361.611 82.251,360.447 82.971 C 360.252 83.091,359.966 84.211,359.810 85.459 C 359.654 86.707,359.363 88.060,359.163 88.464 C 358.963 88.869,358.620 89.558,358.400 89.995 C 358.180 90.432,358.000 91.231,358.000 91.771 C 358.000 92.311,357.838 92.853,357.639 92.976 C 357.441 93.098,357.153 94.279,357.000 95.600 C 356.847 96.921,356.569 98.095,356.384 98.210 C 356.198 98.325,355.923 99.269,355.773 100.309 C 355.622 101.349,355.364 102.380,355.200 102.600 C 355.036 102.820,354.783 103.810,354.639 104.800 C 354.361 106.714,353.529 109.404,353.074 109.859 C 352.923 110.010,352.800 110.633,352.800 111.243 C 352.800 111.853,352.638 112.453,352.439 112.576 C 352.241 112.698,351.953 113.879,351.800 115.200 C 351.647 116.521,351.364 117.699,351.172 117.817 C 350.980 117.936,350.704 118.930,350.559 120.025 C 350.413 121.121,350.138 122.115,349.947 122.233 C 349.756 122.351,349.600 122.966,349.600 123.600 C 349.600 124.234,349.425 124.861,349.212 124.993 C 348.998 125.125,348.704 126.130,348.559 127.225 C 348.413 128.321,348.138 129.315,347.947 129.433 C 347.756 129.551,347.600 130.036,347.600 130.510 C 347.600 132.776,345.070 137.200,343.774 137.200 C 343.512 137.200,343.064 137.482,342.778 137.826 C 341.405 139.481,335.745 140.438,334.258 139.268 C 334.006 139.069,333.260 138.784,332.600 138.632 C 328.848 137.772,327.533 137.502,325.000 137.074 C 323.460 136.813,322.020 136.488,321.800 136.350 C 321.580 136.213,319.690 135.971,317.601 135.813 C 315.511 135.654,313.621 135.406,313.401 135.262 C 312.968 134.979,305.934 134.092,301.400 133.749 C 299.860 133.633,298.429 133.372,298.220 133.169 C 298.011 132.966,296.357 132.800,294.544 132.800 C 292.731 132.800,291.136 132.620,291.000 132.400 C 290.661 131.852,256.539 131.852,256.200 132.400 C 256.064 132.620,254.289 132.800,252.256 132.800 C 250.223 132.800,248.389 132.966,248.180 133.169 C 247.971 133.372,246.540 133.631,245.000 133.744 C 239.397 134.158,233.781 134.835,233.000 135.191 C 232.560 135.391,231.030 135.676,229.600 135.822 C 228.170 135.969,226.820 136.229,226.600 136.400 C 226.380 136.571,224.894 136.839,223.298 136.996 C 221.703 137.153,220.297 137.443,220.175 137.641 C 220.053 137.838,219.434 138.000,218.800 138.000 C 218.166 138.000,217.536 138.180,217.400 138.400 C 217.264 138.620,216.634 138.800,216.000 138.800 C 215.366 138.800,214.751 138.956,214.633 139.147 C 214.515 139.338,213.521 139.613,212.425 139.759 C 211.330 139.904,210.340 140.174,210.225 140.359 C 210.111 140.543,209.121 140.813,208.025 140.959 C 206.930 141.104,205.925 141.398,205.793 141.612 C 205.661 141.825,205.201 142.000,204.771 142.000 C 204.341 142.000,203.677 142.164,203.295 142.365 C 202.913 142.565,201.700 143.032,200.600 143.402 C 199.500 143.773,198.033 144.328,197.340 144.638 C 196.646 144.947,195.701 145.200,195.240 145.200 C 194.778 145.200,194.400 145.366,194.400 145.568 C 194.400 145.771,193.892 146.048,193.271 146.184 C 192.650 146.321,188.825 148.101,184.771 150.141 C 177.078 154.011,176.463 154.353,172.687 156.863 C 171.416 157.708,170.271 158.400,170.145 158.400 C 170.019 158.400,169.233 158.940,168.400 159.600 C 167.567 160.260,166.755 160.800,166.597 160.800 C 166.223 160.800,164.011 162.562,161.703 164.700 C 160.694 165.635,159.753 166.400,159.612 166.400 C 159.300 166.400,151.977 173.823,149.549 176.600 C 147.703 178.711,147.029 179.670,146.433 181.036 C 145.719 182.673,139.431 188.660,137.400 189.638 C 135.268 190.663,119.056 191.024,117.872 190.072 C 117.612 189.863,114.744 189.563,111.498 189.404 C 108.252 189.246,105.496 188.955,105.374 188.758 C 105.252 188.561,103.723 188.400,101.976 188.400 C 100.229 188.400,98.800 188.246,98.800 188.058 C 98.800 187.870,96.339 187.589,93.331 187.433 C 89.986 187.259,87.446 186.934,86.790 186.595 C 85.554 185.956,83.204 183.403,83.191 182.686 C 83.186 182.419,82.830 181.750,82.400 181.200 C 81.628 180.213,81.341 178.392,81.874 177.859 C 82.353 177.380,83.178 174.668,83.446 172.691 C 83.589 171.641,83.862 170.685,84.053 170.567 C 84.244 170.449,84.400 169.911,84.400 169.371 C 84.400 168.831,84.573 168.077,84.784 167.695 C 85.152 167.028,85.550 165.451,86.497 160.900 C 86.737 159.745,87.084 158.800,87.267 158.800 C 87.450 158.800,87.600 158.271,87.600 157.624 C 87.600 156.977,87.755 156.352,87.944 156.235 C 88.133 156.118,88.405 155.170,88.548 154.130 C 88.806 152.241,89.429 149.949,90.000 148.785 C 90.165 148.446,90.428 147.366,90.583 146.385 C 90.738 145.403,91.024 144.060,91.219 143.400 C 91.414 142.740,91.865 141.120,92.220 139.800 C 92.576 138.480,93.015 137.114,93.196 136.764 C 93.378 136.415,93.654 135.107,93.810 133.859 C 93.966 132.611,94.236 131.502,94.409 131.394 C 94.583 131.287,94.849 130.300,95.000 129.200 C 95.151 128.100,95.438 127.100,95.637 126.977 C 95.837 126.854,96.000 126.324,96.000 125.800 C 96.000 125.276,96.180 124.736,96.400 124.600 C 96.620 124.464,96.800 124.003,96.800 123.576 C 96.800 123.149,96.960 122.800,97.155 122.800 C 97.350 122.800,97.630 121.994,97.778 121.009 C 97.925 120.024,98.216 119.114,98.423 118.986 C 98.630 118.858,98.800 118.402,98.800 117.973 C 98.800 117.545,99.223 116.340,99.741 115.297 C 101.702 111.341,103.200 108.109,103.200 107.833 C 103.200 107.675,103.650 106.957,104.200 106.236 C 104.750 105.514,105.200 104.744,105.200 104.524 C 105.200 104.304,105.560 103.798,106.000 103.400 C 106.440 103.002,106.800 102.507,106.800 102.301 C 106.800 101.802,109.381 98.380,111.500 96.068 C 112.435 95.048,113.200 94.021,113.200 93.785 C 113.200 93.549,114.050 92.646,115.090 91.778 C 116.129 90.910,117.812 89.435,118.831 88.500 C 119.850 87.565,120.821 86.800,120.989 86.800 C 121.157 86.800,121.877 86.305,122.590 85.700 C 125.162 83.516,125.603 83.214,126.577 82.970 C 127.122 82.833,127.777 82.469,128.033 82.161 C 128.289 81.852,128.746 81.600,129.049 81.600 C 129.352 81.600,129.600 81.456,129.600 81.279 C 129.600 81.102,130.545 80.626,131.700 80.220 C 132.855 79.814,133.980 79.355,134.200 79.200 C 134.420 79.045,135.590 78.585,136.800 78.177 C 138.010 77.769,139.189 77.300,139.420 77.135 C 139.651 76.970,140.600 76.714,141.529 76.565 C 142.458 76.416,143.314 76.139,143.432 75.947 C 143.551 75.756,144.231 75.600,144.944 75.600 C 145.657 75.600,146.411 75.431,146.620 75.225 C 147.299 74.555,149.393 74.541,253.619 74.470 L 356.638 74.400 358.038 75.900 M266.000 199.742 C 266.000 200.119,265.187 200.360,263.329 200.534 C 261.860 200.671,260.555 200.947,260.429 201.147 C 260.303 201.348,259.435 201.740,258.500 202.019 C 257.565 202.298,256.800 202.678,256.800 202.863 C 256.800 203.048,256.501 203.200,256.136 203.200 C 255.770 203.200,255.005 203.699,254.436 204.309 C 253.866 204.920,252.632 205.936,251.693 206.569 C 250.754 207.201,249.879 208.142,249.749 208.659 C 249.620 209.177,249.365 209.600,249.184 209.600 C 249.002 209.600,248.746 209.941,248.614 210.357 C 248.482 210.773,248.017 211.207,247.581 211.321 C 247.146 211.435,246.519 212.174,246.189 212.964 C 245.859 213.754,245.412 214.400,245.195 214.400 C 244.978 214.400,244.800 214.671,244.800 215.003 C 244.800 215.334,244.350 215.997,243.800 216.475 C 243.250 216.953,242.800 217.502,242.800 217.696 C 242.800 218.093,231.414 229.600,231.021 229.600 C 230.457 229.600,228.400 231.386,228.400 231.875 C 228.400 232.164,228.158 232.400,227.861 232.400 C 227.565 232.400,226.920 232.749,226.428 233.175 C 225.937 233.602,225.009 234.066,224.367 234.207 C 223.725 234.348,223.200 234.617,223.200 234.805 C 223.200 234.993,222.840 235.260,222.400 235.400 C 221.960 235.540,221.600 235.835,221.600 236.056 C 221.600 236.789,220.621 237.440,218.726 237.968 C 217.695 238.255,216.755 238.739,216.638 239.045 C 216.521 239.350,216.059 239.600,215.613 239.600 C 215.166 239.600,214.800 239.780,214.800 240.000 C 214.800 240.220,214.530 240.400,214.200 240.400 C 213.870 240.400,213.600 240.652,213.600 240.960 C 213.600 241.302,212.819 241.707,211.600 242.000 C 210.500 242.264,209.600 242.628,209.600 242.808 C 209.600 242.989,209.060 243.255,208.400 243.400 C 207.740 243.545,207.200 243.829,207.200 244.032 C 207.200 244.234,206.660 244.400,206.000 244.400 C 205.319 244.400,204.441 244.759,203.970 245.230 C 203.513 245.687,202.523 246.160,201.770 246.282 C 201.016 246.405,200.400 246.641,200.400 246.807 C 200.400 246.973,199.590 247.231,198.600 247.379 C 197.610 247.528,196.800 247.802,196.800 247.989 C 196.800 248.177,196.080 248.451,195.200 248.600 C 194.320 248.749,193.600 249.034,193.600 249.235 C 193.600 249.436,193.060 249.600,192.400 249.600 C 191.740 249.600,191.200 249.780,191.200 250.000 C 191.200 250.220,190.671 250.400,190.024 250.400 C 189.377 250.400,188.746 250.563,188.623 250.763 C 188.500 250.962,187.500 251.249,186.400 251.400 C 185.300 251.551,184.309 251.824,184.196 252.006 C 184.084 252.188,182.821 252.463,181.390 252.616 C 179.959 252.769,178.702 253.035,178.596 253.206 C 178.490 253.378,177.142 253.645,175.602 253.800 C 173.686 253.992,172.800 254.249,172.800 254.611 C 172.800 254.990,171.778 255.220,169.200 255.422 C 167.220 255.576,165.600 255.843,165.600 256.014 C 165.600 256.185,163.845 256.455,161.700 256.614 C 159.555 256.773,157.710 257.034,157.600 257.193 C 156.619 258.618,101.764 258.633,100.800 257.208 C 100.690 257.046,98.621 256.782,96.203 256.623 C 93.785 256.464,91.715 256.190,91.603 256.014 C 91.491 255.839,89.555 255.564,87.300 255.405 C 84.418 255.200,83.200 254.964,83.200 254.609 C 83.200 254.267,82.164 254.013,80.000 253.824 C 78.240 253.671,76.800 253.399,76.800 253.220 C 76.800 253.040,75.405 252.764,73.700 252.605 C 71.995 252.446,70.472 252.109,70.315 251.858 C 69.792 251.019,55.104 251.240,54.243 252.100 C 53.858 252.485,53.313 252.800,53.033 252.800 C 52.038 252.800,50.087 254.025,49.891 254.773 C 49.782 255.191,49.285 255.592,48.787 255.666 C 48.289 255.740,47.683 256.144,47.441 256.565 C 47.198 256.986,46.685 257.661,46.300 258.065 C 45.915 258.469,45.600 259.141,45.600 259.557 C 45.600 259.974,45.330 260.418,45.000 260.545 C 44.670 260.671,44.400 261.146,44.400 261.600 C 44.400 262.054,44.130 262.529,43.800 262.655 C 43.470 262.782,43.200 263.226,43.200 263.643 C 43.200 264.059,43.049 264.400,42.864 264.400 C 42.680 264.400,42.291 265.930,42.000 267.800 C 41.709 269.670,41.345 271.200,41.191 271.200 C 41.037 271.200,40.800 272.144,40.663 273.298 C 40.526 274.451,40.231 275.456,40.007 275.531 C 39.783 275.606,39.600 276.222,39.600 276.902 C 39.600 277.581,39.334 278.431,39.009 278.790 C 38.684 279.149,38.213 280.828,37.961 282.521 C 37.709 284.215,37.366 285.600,37.198 285.600 C 37.030 285.600,36.768 286.770,36.615 288.200 C 36.462 289.630,36.184 290.800,35.997 290.800 C 35.810 290.800,35.532 291.804,35.379 293.032 C 35.225 294.259,34.869 295.352,34.586 295.461 C 34.292 295.574,33.950 296.716,33.788 298.129 C 33.632 299.488,33.335 300.707,33.129 300.837 C 32.924 300.968,32.650 302.093,32.522 303.337 C 32.393 304.582,32.142 305.600,31.964 305.600 C 31.786 305.600,31.517 306.684,31.367 308.009 C 31.217 309.334,30.938 310.514,30.747 310.633 C 30.556 310.751,30.400 311.197,30.400 311.624 C 30.400 312.051,30.220 312.400,30.000 312.400 C 29.780 312.400,29.600 313.030,29.600 313.800 C 29.600 314.570,29.434 315.200,29.232 315.200 C 29.029 315.200,28.738 316.370,28.585 317.800 C 28.432 319.230,28.148 320.400,27.953 320.400 C 27.759 320.400,27.600 322.560,27.600 325.200 C 27.600 328.019,27.759 330.000,27.986 330.000 C 28.199 330.000,28.491 330.895,28.636 331.989 C 28.828 333.438,29.104 334.042,29.650 334.216 C 30.063 334.347,30.400 334.646,30.400 334.881 C 30.400 335.116,30.850 335.725,31.400 336.235 C 31.950 336.745,32.400 337.280,32.400 337.425 C 32.400 337.913,34.196 339.586,34.729 339.593 C 35.019 339.597,35.527 339.870,35.857 340.200 C 36.187 340.530,36.804 340.800,37.229 340.800 C 37.653 340.800,38.000 340.980,38.000 341.200 C 38.000 341.420,38.540 341.600,39.200 341.600 C 39.860 341.600,40.400 341.780,40.400 342.000 C 40.400 342.220,41.390 342.400,42.600 342.400 C 43.810 342.400,44.800 342.580,44.800 342.800 C 44.800 343.066,78.867 343.200,146.200 343.200 C 213.533 343.200,247.600 343.066,247.600 342.800 C 247.600 342.565,249.000 342.400,251.000 342.400 C 253.000 342.400,254.400 342.235,254.400 342.000 C 254.400 341.780,255.300 341.600,256.400 341.600 C 257.500 341.600,258.400 341.434,258.400 341.232 C 258.400 341.029,259.570 340.738,261.000 340.585 C 262.430 340.432,263.600 340.165,263.600 339.993 C 263.600 339.820,264.680 339.553,266.000 339.400 C 267.320 339.247,268.400 338.961,268.400 338.765 C 268.400 338.570,269.120 338.294,270.000 338.154 C 270.934 338.004,271.600 337.677,271.600 337.367 C 271.600 337.075,272.230 336.718,273.000 336.574 C 273.770 336.429,274.400 336.174,274.400 336.007 C 274.400 335.839,275.120 335.587,276.000 335.446 C 276.880 335.306,277.600 335.020,277.600 334.811 C 277.600 334.603,278.287 334.226,279.127 333.974 C 279.967 333.723,281.252 332.996,281.982 332.358 C 282.711 331.721,283.562 331.200,283.871 331.200 C 284.181 331.200,284.651 331.018,284.917 330.796 C 285.183 330.573,285.895 330.020,286.500 329.567 C 287.105 329.113,287.600 328.485,287.600 328.171 C 287.600 327.857,287.931 327.600,288.337 327.600 C 289.487 327.600,300.797 317.202,300.799 316.143 C 300.800 315.891,301.070 315.582,301.400 315.455 C 301.730 315.329,302.000 314.949,302.000 314.613 C 302.000 314.276,302.270 314.000,302.600 314.000 C 302.930 314.000,303.200 313.739,303.200 313.420 C 303.200 313.101,303.443 312.696,303.740 312.520 C 304.294 312.191,305.219 310.644,306.023 308.700 C 306.273 308.095,306.731 307.600,307.039 307.600 C 307.348 307.600,307.600 307.349,307.600 307.043 C 307.600 306.736,307.870 306.382,308.200 306.255 C 308.530 306.129,308.800 305.659,308.800 305.213 C 308.800 304.766,308.963 304.400,309.163 304.400 C 309.363 304.400,309.757 303.500,310.039 302.400 C 310.321 301.300,310.697 300.400,310.876 300.400 C 311.054 300.400,311.200 300.130,311.200 299.800 C 311.200 299.470,311.382 299.200,311.605 299.200 C 312.037 299.200,313.998 295.211,314.002 294.326 C 314.004 294.037,314.248 293.333,314.546 292.763 C 314.844 292.192,315.211 291.067,315.362 290.263 C 315.528 289.375,315.865 288.800,316.218 288.800 C 316.598 288.800,316.800 288.383,316.800 287.600 C 316.800 286.940,316.955 286.400,317.145 286.400 C 317.335 286.400,317.708 285.050,317.974 283.400 C 318.240 281.750,318.604 280.400,318.782 280.400 C 318.961 280.400,319.232 279.230,319.385 277.800 C 319.538 276.370,319.829 275.200,320.032 275.200 C 320.234 275.200,320.400 274.679,320.400 274.043 C 320.400 273.406,320.646 272.791,320.946 272.676 C 321.282 272.547,321.672 271.261,321.956 269.351 C 322.211 267.637,322.574 266.137,322.762 266.018 C 322.950 265.898,323.233 264.675,323.391 263.300 C 323.549 261.925,323.816 260.800,323.984 260.800 C 324.151 260.800,324.399 259.865,324.535 258.721 C 324.672 257.560,325.033 256.502,325.351 256.323 C 325.687 256.135,326.035 255.019,326.200 253.602 C 326.353 252.280,326.620 251.111,326.793 251.005 C 326.965 250.898,327.230 249.818,327.382 248.605 C 327.534 247.392,327.806 246.400,327.988 246.400 C 328.170 246.400,328.445 245.140,328.600 243.600 C 328.755 242.060,329.043 240.800,329.241 240.800 C 329.438 240.800,329.600 240.260,329.600 239.600 C 329.600 238.940,329.780 238.400,330.000 238.400 C 330.220 238.400,330.400 237.950,330.400 237.400 C 330.400 236.850,330.566 236.400,330.768 236.400 C 330.971 236.400,331.262 235.230,331.415 233.800 C 331.568 232.370,331.841 231.200,332.022 231.200 C 332.203 231.200,332.476 229.936,332.628 228.391 C 332.781 226.846,333.061 225.486,333.253 225.368 C 333.707 225.087,333.706 219.200,333.252 219.200 C 333.060 219.200,332.781 218.120,332.632 216.800 C 332.482 215.480,332.209 214.400,332.025 214.400 C 331.840 214.400,331.573 213.780,331.431 213.023 C 331.285 212.247,330.873 211.543,330.486 211.412 C 329.417 211.049,327.720 209.408,327.413 208.442 C 327.243 207.905,326.695 207.479,325.993 207.339 C 325.365 207.213,324.759 206.870,324.647 206.577 C 324.534 206.284,323.801 205.924,323.017 205.777 C 322.233 205.630,321.493 205.350,321.372 205.155 C 321.251 204.960,320.463 204.800,319.619 204.800 C 318.678 204.800,318.003 204.585,317.872 204.243 C 317.710 203.822,316.237 203.615,311.829 203.395 C 308.623 203.234,306.000 202.975,306.000 202.819 C 306.000 202.663,301.815 202.304,296.700 202.022 C 291.585 201.740,287.310 201.369,287.200 201.197 C 287.090 201.025,284.075 200.752,280.500 200.591 C 275.401 200.361,274.000 200.179,274.000 199.749 C 274.000 199.320,273.123 199.200,270.000 199.200 C 266.901 199.200,266.000 199.322,266.000 199.742 M277.420 213.171 C 277.629 213.375,279.240 213.637,281.000 213.753 C 285.973 214.080,296.600 215.065,296.600 215.198 C 296.600 215.263,299.570 215.564,303.200 215.866 C 314.955 216.843,314.443 216.754,316.268 218.137 C 319.364 220.482,321.001 226.008,319.238 228.160 C 319.040 228.402,318.749 229.637,318.592 230.905 C 318.435 232.173,318.148 233.309,317.953 233.429 C 317.759 233.549,317.600 234.141,317.600 234.744 C 317.600 235.347,317.439 236.011,317.242 236.220 C 316.906 236.577,316.220 239.094,315.721 241.800 C 315.599 242.460,315.350 243.189,315.167 243.420 C 314.985 243.651,314.713 244.641,314.563 245.620 C 314.413 246.599,314.158 247.580,313.996 247.800 C 313.834 248.020,313.574 249.078,313.418 250.152 C 313.263 251.226,312.985 252.486,312.800 252.952 C 312.616 253.418,312.328 254.160,312.159 254.600 C 311.863 255.375,311.009 258.946,310.532 261.400 C 310.404 262.060,310.142 262.798,309.950 263.040 C 309.758 263.283,309.486 264.322,309.345 265.351 C 309.204 266.380,308.933 267.318,308.744 267.435 C 308.555 267.552,308.400 268.166,308.400 268.800 C 308.400 269.434,308.244 270.049,308.053 270.167 C 307.862 270.285,307.587 271.279,307.441 272.375 C 307.296 273.470,307.027 274.460,306.844 274.573 C 306.661 274.686,306.396 275.620,306.255 276.649 C 306.114 277.678,305.853 278.717,305.676 278.960 C 305.498 279.202,304.832 281.020,304.197 283.000 C 303.561 284.980,302.627 287.392,302.121 288.360 C 301.614 289.327,301.200 290.364,301.200 290.663 C 301.200 291.310,299.130 295.342,298.700 295.533 C 298.535 295.607,298.400 295.900,298.400 296.184 C 298.400 296.469,298.148 296.911,297.839 297.167 C 297.531 297.423,297.164 298.091,297.023 298.651 C 296.883 299.210,296.598 299.878,296.390 300.134 C 294.550 302.402,294.000 303.157,294.000 303.412 C 294.000 303.575,293.550 304.125,293.000 304.635 C 292.450 305.145,292.000 305.714,292.000 305.900 C 292.000 306.086,291.280 306.941,290.400 307.800 C 289.520 308.659,288.800 309.545,288.800 309.767 C 288.800 310.346,285.126 314.000,284.544 314.000 C 284.277 314.000,283.550 314.591,282.929 315.313 C 282.308 316.036,281.126 317.071,280.303 317.613 C 279.479 318.156,278.804 318.735,278.803 318.900 C 278.801 319.065,278.613 319.200,278.384 319.200 C 278.155 319.200,277.435 319.560,276.784 320.000 C 274.111 321.806,273.318 322.261,271.600 322.969 C 270.610 323.378,268.810 324.169,267.600 324.727 C 264.670 326.079,264.048 326.305,262.400 326.624 C 261.630 326.772,260.820 327.006,260.600 327.144 C 259.527 327.814,257.120 328.405,254.489 328.646 C 252.888 328.793,251.482 329.067,251.365 329.256 C 251.248 329.446,205.255 329.600,148.350 329.600 L 45.546 329.600 44.131 328.100 C 41.719 325.545,40.289 321.410,41.547 320.633 C 41.738 320.515,42.015 319.507,42.163 318.393 C 42.311 317.279,42.590 315.970,42.783 315.484 C 42.977 314.998,43.272 314.240,43.441 313.800 C 43.758 312.970,44.420 310.195,45.206 306.400 C 45.456 305.190,45.828 304.029,46.031 303.820 C 46.234 303.611,46.400 302.947,46.400 302.344 C 46.400 301.741,46.580 301.136,46.800 301.000 C 47.020 300.864,47.200 300.234,47.200 299.600 C 47.200 298.966,47.363 298.346,47.563 298.223 C 47.762 298.100,48.049 297.100,48.200 296.000 C 48.351 294.900,48.620 293.911,48.798 293.801 C 48.976 293.691,49.247 292.521,49.400 291.200 C 49.553 289.879,49.841 288.698,50.039 288.576 C 50.238 288.453,50.400 288.024,50.400 287.622 C 50.400 286.778,51.502 282.928,52.037 281.905 C 52.237 281.523,52.400 280.668,52.400 280.005 C 52.400 279.342,52.567 278.800,52.771 278.800 C 52.975 278.800,53.266 277.808,53.418 276.595 C 53.570 275.382,53.836 274.302,54.009 274.194 C 54.183 274.087,54.453 273.066,54.610 271.926 C 55.288 267.001,64.435 262.008,67.746 264.755 C 68.000 264.966,69.335 265.266,70.713 265.422 C 72.091 265.578,73.314 265.862,73.433 266.053 C 73.551 266.244,74.321 266.400,75.144 266.400 C 75.967 266.400,76.816 266.576,77.031 266.791 C 77.246 267.006,78.998 267.303,80.924 267.451 C 82.851 267.599,84.522 267.873,84.637 268.060 C 84.753 268.247,85.636 268.400,86.600 268.400 C 87.564 268.400,88.452 268.560,88.573 268.756 C 88.694 268.952,90.776 269.242,93.200 269.400 C 95.624 269.558,97.695 269.829,97.801 270.002 C 97.908 270.175,100.652 270.436,103.898 270.582 C 107.144 270.728,110.160 271.022,110.600 271.235 C 112.534 272.171,155.620 271.109,159.600 270.028 C 160.370 269.819,162.710 269.468,164.800 269.249 C 169.673 268.738,173.981 268.042,175.000 267.601 C 175.440 267.410,176.340 267.160,177.000 267.045 C 178.238 266.829,179.916 266.466,184.400 265.442 C 188.811 264.435,190.560 263.995,191.600 263.631 C 192.150 263.439,193.680 262.980,195.000 262.610 C 196.320 262.241,197.760 261.780,198.200 261.585 C 198.640 261.390,199.990 260.940,201.200 260.584 C 202.410 260.229,203.878 259.682,204.462 259.369 C 205.046 259.056,205.766 258.800,206.062 258.801 C 206.358 258.802,207.320 258.450,208.200 258.020 C 211.953 256.186,215.093 254.800,215.498 254.800 C 215.738 254.800,215.993 254.665,216.067 254.499 C 216.140 254.334,218.270 253.147,220.800 251.862 C 223.330 250.578,226.210 249.006,227.200 248.371 C 228.190 247.736,229.405 247.037,229.900 246.818 C 230.395 246.599,230.800 246.235,230.800 246.010 C 230.800 245.784,230.982 245.600,231.204 245.600 C 231.938 245.600,239.268 240.274,240.770 238.649 C 241.303 238.072,241.930 237.600,242.163 237.600 C 242.718 237.600,251.200 229.142,251.200 228.588 C 251.200 228.354,251.920 227.459,252.800 226.600 C 253.680 225.741,254.400 224.861,254.400 224.645 C 254.400 224.428,255.120 223.398,256.000 222.354 C 256.880 221.310,257.600 220.301,257.600 220.112 C 257.600 219.669,260.864 216.459,261.924 215.858 C 262.368 215.606,263.602 214.974,264.666 214.453 C 265.730 213.932,266.870 213.357,267.200 213.176 C 268.032 212.720,276.953 212.715,277.420 213.171 " stroke="none" fill="#050505" fill-rule="evenodd"></path><path id="path1" d="M150.630 75.152 C 150.510 75.346,148.880 75.632,147.007 75.788 C 145.135 75.944,143.508 76.225,143.392 76.413 C 143.276 76.600,142.376 76.875,141.391 77.022 C 140.406 77.170,139.600 77.411,139.600 77.558 C 139.600 77.705,138.766 78.072,137.747 78.372 C 136.728 78.673,135.099 79.343,134.126 79.860 C 133.153 80.377,132.169 80.800,131.939 80.800 C 131.336 80.800,128.799 82.017,127.400 82.978 C 125.778 84.092,124.716 84.751,124.017 85.077 C 123.321 85.402,122.088 86.408,119.579 88.700 C 118.555 89.635,117.563 90.400,117.374 90.400 C 116.883 90.400,113.601 93.684,113.593 94.183 C 113.590 94.412,112.870 95.307,111.993 96.170 C 111.117 97.034,110.400 97.908,110.400 98.113 C 110.400 98.317,109.950 98.839,109.400 99.271 C 108.850 99.704,108.400 100.223,108.400 100.425 C 108.400 100.627,107.680 101.828,106.801 103.096 C 105.921 104.363,105.201 105.603,105.201 105.851 C 105.200 106.099,104.940 106.517,104.623 106.781 C 104.045 107.261,101.200 112.797,101.200 113.443 C 101.200 113.632,100.721 114.780,100.135 115.994 C 99.550 117.207,98.942 118.477,98.785 118.815 C 98.627 119.154,98.371 120.188,98.215 121.113 C 98.058 122.039,97.782 122.888,97.600 123.000 C 97.418 123.112,97.148 123.922,97.000 124.800 C 96.852 125.678,96.566 126.497,96.365 126.622 C 96.164 126.746,96.000 127.229,96.000 127.695 C 96.000 128.614,95.156 131.275,94.761 131.600 C 94.627 131.710,94.390 132.786,94.233 133.990 C 94.077 135.195,93.805 136.365,93.629 136.590 C 93.453 136.816,93.187 137.801,93.037 138.780 C 92.887 139.759,92.615 140.749,92.433 140.980 C 92.250 141.211,91.996 141.940,91.868 142.600 C 91.034 146.891,90.329 149.464,89.608 150.836 C 89.424 151.185,89.146 152.493,88.990 153.741 C 88.834 154.989,88.548 156.109,88.353 156.229 C 88.159 156.349,88.000 156.866,88.000 157.378 C 88.000 158.383,86.954 162.165,86.363 163.295 C 86.163 163.677,86.000 164.431,86.000 164.971 C 86.000 165.511,85.830 166.058,85.623 166.186 C 85.416 166.314,85.123 167.269,84.973 168.309 C 84.822 169.349,84.562 170.380,84.394 170.600 C 84.227 170.820,83.959 171.990,83.800 173.200 C 83.641 174.410,83.312 175.645,83.068 175.946 C 82.510 176.635,82.462 181.131,83.008 181.514 C 83.233 181.671,83.624 182.273,83.878 182.852 C 84.131 183.430,85.060 184.510,85.940 185.252 C 87.718 186.748,85.789 186.462,105.200 188.108 C 108.390 188.379,111.180 188.715,111.400 188.855 C 111.620 188.995,114.553 189.241,117.918 189.401 C 122.274 189.608,124.195 189.852,124.589 190.246 C 125.411 191.068,133.312 191.029,134.000 190.200 C 134.274 189.870,134.756 189.600,135.071 189.600 C 135.965 189.600,139.200 188.025,139.200 187.590 C 139.200 187.376,139.444 187.200,139.742 187.200 C 140.203 187.200,141.279 186.135,145.030 181.966 C 145.343 181.618,145.600 181.052,145.600 180.709 C 145.600 180.366,145.870 179.982,146.200 179.855 C 146.530 179.729,146.800 179.360,146.800 179.035 C 146.800 178.711,147.123 178.210,147.517 177.923 C 147.911 177.635,148.856 176.603,149.617 175.628 C 151.293 173.481,159.082 165.600,159.527 165.600 C 159.702 165.600,160.686 164.835,161.714 163.900 C 163.907 161.906,165.494 160.713,166.487 160.313 C 166.879 160.155,167.200 159.840,167.200 159.613 C 167.200 159.386,167.442 159.200,167.738 159.200 C 168.034 159.200,168.602 158.840,169.000 158.400 C 169.398 157.960,169.895 157.600,170.104 157.600 C 170.314 157.600,171.141 157.084,171.942 156.453 C 172.744 155.823,173.847 155.167,174.394 154.997 C 174.941 154.826,176.021 154.183,176.794 153.568 C 177.567 152.953,178.695 152.329,179.300 152.182 C 179.905 152.034,180.400 151.753,180.400 151.557 C 180.400 151.360,180.625 151.199,180.900 151.198 C 181.175 151.197,182.300 150.725,183.400 150.149 C 184.500 149.573,186.480 148.572,187.800 147.924 C 189.120 147.276,190.476 146.601,190.813 146.424 C 191.150 146.247,192.005 145.975,192.713 145.819 C 193.421 145.664,194.000 145.410,194.000 145.256 C 194.000 145.101,194.810 144.735,195.800 144.443 C 196.790 144.151,197.600 143.767,197.600 143.591 C 197.600 143.415,198.365 143.144,199.300 142.990 C 200.235 142.836,201.180 142.571,201.400 142.401 C 201.620 142.231,202.430 141.971,203.200 141.823 C 203.970 141.675,205.050 141.360,205.600 141.123 C 208.360 139.936,212.184 138.800,213.422 138.800 C 213.934 138.800,214.453 138.638,214.576 138.439 C 214.698 138.241,215.879 137.953,217.200 137.800 C 218.521 137.647,219.692 137.374,219.803 137.195 C 219.914 137.015,221.357 136.741,223.008 136.586 C 224.660 136.432,226.110 136.146,226.229 135.952 C 226.349 135.759,227.056 135.600,227.800 135.600 C 228.544 135.600,229.264 135.420,229.400 135.200 C 229.536 134.980,230.269 134.800,231.029 134.800 C 231.789 134.800,232.723 134.623,233.105 134.406 C 233.487 134.189,235.690 133.825,238.000 133.597 C 240.310 133.369,244.000 132.975,246.200 132.722 C 251.931 132.062,294.888 132.075,300.200 132.738 C 302.400 133.013,305.190 133.337,306.400 133.458 C 307.610 133.580,308.780 133.820,309.000 133.992 C 309.220 134.165,311.155 134.434,313.299 134.590 C 315.444 134.747,317.300 135.038,317.423 135.237 C 317.546 135.437,318.597 135.600,319.757 135.600 C 320.917 135.600,322.000 135.735,322.163 135.900 C 322.435 136.176,324.043 136.486,331.194 137.640 C 332.621 137.870,334.001 138.235,334.261 138.451 C 336.668 140.448,344.088 137.707,345.765 134.200 C 346.186 133.320,346.681 132.287,346.865 131.905 C 347.049 131.523,347.200 130.769,347.200 130.229 C 347.200 129.689,347.363 129.146,347.563 129.023 C 347.762 128.900,348.049 127.900,348.200 126.800 C 348.351 125.700,348.617 124.713,348.791 124.606 C 348.964 124.498,349.235 123.373,349.392 122.105 C 349.549 120.837,349.807 119.620,349.966 119.400 C 350.467 118.709,351.842 113.655,352.281 110.900 C 352.394 110.185,352.631 109.600,352.806 109.600 C 352.982 109.600,353.252 108.655,353.407 107.500 C 353.563 106.345,353.829 105.220,354.000 105.000 C 354.171 104.780,354.443 103.617,354.604 102.416 C 354.766 101.215,355.056 99.910,355.249 99.516 C 355.442 99.122,355.780 98.442,356.000 98.005 C 356.220 97.568,356.400 96.769,356.400 96.229 C 356.400 95.689,356.556 95.151,356.747 95.033 C 356.938 94.915,357.214 93.869,357.360 92.709 C 357.505 91.549,357.905 89.700,358.248 88.600 C 359.403 84.891,359.600 84.145,359.600 83.472 C 359.600 83.102,359.780 82.800,360.000 82.800 C 361.221 82.800,359.372 78.059,357.314 75.910 L 356.250 74.800 253.549 74.800 C 194.806 74.800,150.754 74.951,150.630 75.152 M267.828 213.555 C 267.707 213.750,266.990 214.025,266.234 214.167 C 265.477 214.309,264.800 214.555,264.729 214.713 C 264.562 215.085,262.117 216.800,261.754 216.800 C 261.375 216.800,258.400 219.953,258.400 220.355 C 258.400 220.531,258.021 221.019,257.559 221.438 C 257.096 221.856,256.251 223.009,255.681 224.000 C 255.111 224.990,253.959 226.399,253.122 227.131 C 252.285 227.863,251.600 228.680,251.600 228.947 C 251.600 229.453,242.749 238.400,242.248 238.400 C 242.090 238.400,241.312 239.030,240.519 239.800 C 239.726 240.570,238.906 241.200,238.696 241.200 C 238.487 241.200,237.966 241.644,237.539 242.187 C 236.803 243.122,235.737 243.839,233.700 244.769 C 233.205 244.995,232.800 245.365,232.800 245.590 C 232.800 245.816,232.589 246.000,232.331 246.000 C 232.074 246.000,231.533 246.299,231.129 246.664 C 230.366 247.355,229.308 248.015,227.600 248.867 C 227.050 249.141,225.700 249.919,224.600 250.595 C 223.500 251.271,221.340 252.415,219.800 253.136 C 218.260 253.857,216.640 254.649,216.200 254.897 C 213.172 256.604,210.327 257.953,209.260 258.187 C 208.572 258.338,207.906 258.628,207.781 258.831 C 207.655 259.034,207.248 259.201,206.876 259.202 C 206.504 259.204,205.684 259.474,205.054 259.802 C 204.424 260.131,203.569 260.400,203.154 260.400 C 202.739 260.400,202.400 260.580,202.400 260.800 C 202.400 261.020,202.051 261.200,201.624 261.200 C 201.197 261.200,200.749 261.359,200.629 261.554 C 200.508 261.748,199.602 262.029,198.614 262.177 C 197.627 262.325,196.720 262.605,196.600 262.800 C 196.480 262.995,195.531 263.277,194.491 263.427 C 193.451 263.578,192.420 263.826,192.200 263.978 C 191.980 264.131,190.990 264.489,190.000 264.774 C 189.010 265.059,187.750 265.445,187.200 265.630 C 185.913 266.065,182.595 266.736,178.800 267.330 C 177.150 267.589,175.616 267.920,175.392 268.067 C 175.168 268.213,173.683 268.462,172.092 268.618 C 170.501 268.775,169.200 269.060,169.200 269.252 C 169.200 269.443,168.300 269.600,167.200 269.600 C 166.100 269.600,165.200 269.765,165.200 269.967 C 165.200 270.359,160.908 270.777,157.072 270.759 C 155.721 270.752,154.479 270.968,154.111 271.274 C 153.259 271.981,104.442 272.055,103.562 271.351 C 103.253 271.104,100.840 270.773,98.200 270.616 C 95.560 270.459,93.220 270.185,93.000 270.006 C 92.780 269.828,91.700 269.579,90.600 269.452 C 85.862 268.906,84.577 268.696,84.200 268.408 C 83.980 268.239,82.270 267.972,80.400 267.815 C 78.530 267.658,76.820 267.389,76.600 267.217 C 76.380 267.045,75.030 266.781,73.600 266.631 C 71.030 266.361,68.854 265.832,67.505 265.151 C 66.470 264.628,62.230 264.727,61.140 265.300 C 59.840 265.984,57.533 267.607,56.778 268.371 C 56.200 268.956,55.406 271.130,54.356 275.000 C 54.117 275.880,53.763 276.907,53.569 277.283 C 53.374 277.658,53.097 278.738,52.953 279.683 C 52.809 280.627,52.556 281.580,52.390 281.800 C 52.225 282.020,51.963 283.145,51.807 284.300 C 51.652 285.455,51.379 286.400,51.202 286.400 C 51.024 286.400,50.753 287.480,50.600 288.801 C 50.447 290.121,50.159 291.302,49.961 291.424 C 49.762 291.547,49.600 292.141,49.600 292.744 C 49.600 293.347,49.457 294.011,49.282 294.220 C 48.773 294.827,48.083 297.193,47.596 300.000 C 47.162 302.508,45.845 307.124,45.191 308.436 C 45.016 308.785,44.746 310.093,44.590 311.341 C 44.434 312.589,44.158 313.702,43.976 313.815 C 43.795 313.927,43.523 314.869,43.373 315.909 C 43.222 316.949,42.959 317.980,42.788 318.200 C 41.183 320.264,42.246 325.880,44.640 327.981 L 46.028 329.200 148.390 329.200 C 205.909 329.200,250.847 329.048,250.968 328.852 C 251.086 328.661,252.671 328.375,254.491 328.217 C 256.311 328.059,257.980 327.798,258.200 327.637 C 258.420 327.476,259.410 327.099,260.400 326.800 C 261.390 326.501,262.380 326.129,262.600 325.974 C 262.820 325.819,263.615 325.561,264.366 325.400 C 265.117 325.239,266.539 324.678,267.525 324.154 C 268.512 323.629,269.557 323.200,269.847 323.200 C 270.577 323.200,273.442 321.672,274.022 320.974 C 274.284 320.658,274.722 320.400,274.995 320.400 C 275.268 320.400,275.950 320.040,276.509 319.600 C 277.069 319.160,277.711 318.800,277.938 318.800 C 278.164 318.800,278.856 318.340,279.475 317.778 C 280.094 317.216,282.220 315.371,284.200 313.678 C 286.180 311.985,287.866 310.448,287.946 310.261 C 288.027 310.075,288.837 309.041,289.746 307.964 C 292.582 304.606,293.600 303.300,293.600 303.021 C 293.600 302.873,294.235 301.921,295.010 300.905 C 295.786 299.889,296.525 298.640,296.654 298.129 C 296.782 297.618,297.032 297.200,297.209 297.200 C 297.494 297.200,298.452 295.321,301.798 288.200 C 302.315 287.100,302.863 285.570,303.015 284.800 C 303.168 284.030,303.422 283.220,303.581 283.000 C 303.739 282.780,304.179 281.520,304.558 280.200 C 304.937 278.880,305.416 277.487,305.623 277.105 C 305.831 276.723,306.000 275.958,306.000 275.405 C 306.000 274.852,306.163 274.400,306.362 274.400 C 306.562 274.400,306.852 273.455,307.007 272.300 C 307.163 271.145,307.427 270.020,307.594 269.800 C 307.762 269.580,308.017 268.590,308.161 267.600 C 308.439 265.686,309.271 262.996,309.726 262.541 C 309.877 262.390,310.000 261.757,310.000 261.133 C 310.000 260.510,310.159 260.000,310.353 260.000 C 310.548 260.000,310.832 258.830,310.985 257.400 C 311.138 255.970,311.412 254.800,311.594 254.800 C 311.776 254.800,312.052 253.855,312.207 252.700 C 312.363 251.545,312.627 250.420,312.794 250.200 C 312.962 249.980,313.225 248.928,313.380 247.863 C 313.534 246.798,314.007 245.118,314.430 244.130 C 314.854 243.142,315.200 241.909,315.200 241.390 C 315.200 240.872,315.356 240.351,315.547 240.233 C 315.738 240.115,316.013 239.121,316.159 238.025 C 316.304 236.930,316.580 235.936,316.772 235.817 C 316.964 235.699,317.247 234.521,317.400 233.200 C 317.553 231.879,317.841 230.698,318.039 230.576 C 318.238 230.453,318.400 229.834,318.400 229.200 C 318.400 228.566,318.570 227.942,318.777 227.814 C 318.984 227.686,319.273 226.787,319.419 225.816 C 319.683 224.053,319.657 223.967,317.753 220.365 C 316.426 217.854,314.914 217.303,308.455 216.975 C 305.345 216.817,302.800 216.558,302.800 216.400 C 302.800 216.242,300.235 215.985,297.100 215.829 C 293.521 215.650,291.096 215.349,290.584 215.019 C 290.058 214.679,287.535 214.387,283.478 214.197 C 280.018 214.035,277.089 213.744,276.970 213.551 C 276.685 213.091,268.113 213.094,267.828 213.555 " stroke="none" fill="#e9e9e9" fill-rule="evenodd"></path><path id="path2" d="M202.300 74.700 C 230.515 74.757,276.685 74.757,304.900 74.700 C 333.115 74.643,310.030 74.597,253.600 74.597 C 197.170 74.597,174.085 74.643,202.300 74.700 M148.800 75.095 C 147.810 75.181,146.873 75.375,146.719 75.527 C 146.564 75.679,147.284 75.740,148.319 75.663 C 149.353 75.586,150.371 75.360,150.580 75.161 C 150.789 74.963,150.879 74.831,150.780 74.870 C 150.681 74.908,149.790 75.010,148.800 75.095 M358.047 76.600 C 358.389 77.040,358.901 77.989,359.186 78.709 C 359.471 79.428,359.855 80.110,360.040 80.225 C 360.640 80.596,358.915 77.141,358.160 76.461 C 357.461 75.831,357.456 75.838,358.047 76.600 M132.200 80.285 C 130.975 80.580,130.598 81.128,131.776 80.903 C 132.346 80.794,132.910 80.546,133.030 80.352 C 133.149 80.159,133.192 80.021,133.124 80.046 C 133.056 80.072,132.640 80.179,132.200 80.285 M125.786 83.581 C 125.338 83.762,124.712 84.246,124.393 84.655 C 123.835 85.372,123.845 85.374,124.638 84.700 C 125.092 84.315,125.663 84.000,125.908 84.000 C 126.153 84.000,126.464 83.820,126.600 83.600 C 126.884 83.140,126.874 83.140,125.786 83.581 M358.984 85.900 C 358.856 86.505,358.683 87.341,358.598 87.758 C 358.514 88.174,358.591 88.354,358.770 88.158 C 359.119 87.774,359.662 84.800,359.382 84.800 C 359.290 84.800,359.111 85.295,358.984 85.900 M119.183 88.700 L 117.400 90.600 119.393 88.800 C 120.488 87.810,121.463 86.955,121.559 86.900 C 121.655 86.845,121.561 86.800,121.350 86.800 C 121.139 86.800,120.164 87.655,119.183 88.700 M355.751 98.300 C 355.628 98.685,355.378 99.360,355.196 99.800 C 354.655 101.108,354.334 103.503,354.794 102.800 C 355.011 102.470,355.191 101.716,355.194 101.124 C 355.197 100.532,355.359 99.949,355.552 99.830 C 355.746 99.710,355.991 99.159,356.097 98.606 C 356.316 97.456,356.086 97.252,355.751 98.300 M353.754 105.377 C 353.632 105.694,353.603 106.279,353.689 106.677 C 353.787 107.128,353.924 106.912,354.054 106.100 C 354.271 104.738,354.130 104.396,353.754 105.377 M100.987 113.000 C 100.884 113.330,100.712 113.879,100.605 114.221 C 100.497 114.562,100.566 114.745,100.757 114.627 C 100.948 114.509,101.191 113.959,101.297 113.406 C 101.506 112.313,101.290 112.030,100.987 113.000 M351.552 113.913 C 351.421 114.707,351.479 115.081,351.701 114.859 C 351.903 114.657,352.001 114.067,351.919 113.546 C 351.793 112.745,351.737 112.802,351.552 113.913 M350.552 117.900 C 350.408 118.505,350.157 119.180,349.995 119.400 C 349.568 119.980,349.285 122.395,349.672 122.155 C 349.853 122.044,350.000 121.459,350.000 120.856 C 350.000 120.253,350.157 119.589,350.348 119.380 C 350.756 118.935,351.308 116.800,351.015 116.800 C 350.905 116.800,350.697 117.295,350.552 117.900 M97.787 121.400 C 97.684 121.730,97.512 122.279,97.405 122.621 C 97.297 122.962,97.366 123.145,97.557 123.027 C 97.748 122.909,97.991 122.359,98.097 121.806 C 98.306 120.713,98.090 120.430,97.787 121.400 M95.654 127.867 C 95.625 128.344,95.496 129.064,95.370 129.467 C 95.152 130.161,95.164 130.162,95.596 129.488 C 95.847 129.097,95.975 128.377,95.881 127.888 C 95.709 127.001,95.709 127.001,95.654 127.867 M346.587 132.200 C 346.484 132.530,346.312 133.079,346.205 133.421 C 346.097 133.762,346.166 133.945,346.357 133.827 C 346.548 133.709,346.791 133.159,346.897 132.606 C 347.106 131.513,346.890 131.230,346.587 132.200 M245.200 132.846 C 243.550 133.018,240.310 133.351,238.000 133.585 C 235.690 133.820,233.487 134.189,233.105 134.406 C 232.723 134.623,231.789 134.800,231.029 134.800 C 230.269 134.800,229.536 134.980,229.400 135.200 C 229.264 135.420,228.544 135.600,227.800 135.600 C 227.056 135.600,226.364 135.735,226.262 135.900 C 226.160 136.065,226.869 136.137,227.838 136.060 C 228.807 135.983,229.600 135.758,229.600 135.560 C 229.600 135.362,230.232 135.200,231.005 135.200 C 231.778 135.200,232.723 135.023,233.105 134.806 C 233.738 134.447,236.693 134.077,245.267 133.284 C 246.955 133.128,248.470 132.865,248.634 132.700 C 248.799 132.535,248.768 132.430,248.567 132.466 C 248.365 132.503,246.850 132.673,245.200 132.846 M298.359 132.921 C 298.536 133.097,299.833 133.185,301.241 133.116 L 303.800 132.991 300.918 132.795 C 299.333 132.688,298.181 132.744,298.359 132.921 M305.200 133.825 C 306.603 134.135,309.118 134.190,308.943 133.907 C 308.838 133.738,307.818 133.621,306.676 133.646 C 305.534 133.672,304.870 133.752,305.200 133.825 M93.754 134.577 C 93.632 134.894,93.603 135.479,93.689 135.877 C 93.787 136.328,93.924 136.112,94.054 135.300 C 94.271 133.938,94.130 133.596,93.754 134.577 M313.266 134.849 C 313.560 135.035,314.529 135.191,315.420 135.194 C 316.311 135.197,317.211 135.364,317.420 135.565 C 317.879 136.005,322.404 136.327,322.139 135.900 C 322.037 135.735,321.009 135.600,319.856 135.600 C 318.703 135.600,317.589 135.441,317.380 135.247 C 317.171 135.053,316.040 134.808,314.866 134.702 C 313.625 134.591,312.956 134.652,313.266 134.849 M344.534 135.893 C 343.838 136.612,343.399 137.200,343.559 137.200 C 343.931 137.200,346.199 134.846,345.971 134.697 C 345.877 134.636,345.230 135.174,344.534 135.893 M221.600 136.693 C 220.830 136.783,220.056 136.997,219.880 137.168 C 219.705 137.339,220.381 137.355,221.384 137.202 C 222.387 137.050,223.326 136.807,223.471 136.663 C 223.615 136.518,223.568 136.429,223.367 136.464 C 223.165 136.499,222.370 136.602,221.600 136.693 M325.905 137.083 C 326.402 137.179,327.122 137.175,327.505 137.075 C 327.887 136.975,327.480 136.896,326.600 136.901 C 325.720 136.905,325.407 136.987,325.905 137.083 M216.200 137.891 C 214.484 138.135,214.120 138.672,215.804 138.475 C 216.576 138.385,217.306 138.151,217.427 137.956 C 217.548 137.760,217.592 137.627,217.524 137.660 C 217.456 137.693,216.860 137.797,216.200 137.891 M331.600 137.994 C 331.930 138.211,332.635 138.391,333.167 138.394 C 334.451 138.402,334.125 138.175,332.400 137.858 C 331.415 137.677,331.178 137.718,331.600 137.994 M210.200 139.460 C 209.100 139.796,207.887 140.235,207.505 140.435 C 207.123 140.636,206.549 140.800,206.229 140.800 C 205.909 140.800,205.552 140.954,205.436 141.142 C 205.319 141.330,205.671 141.399,206.218 141.294 C 206.765 141.190,207.310 140.946,207.430 140.752 C 207.549 140.559,208.141 140.400,208.744 140.400 C 209.347 140.400,210.011 140.236,210.220 140.035 C 210.429 139.835,211.410 139.494,212.400 139.278 C 213.433 139.053,213.774 138.878,213.200 138.868 C 212.650 138.858,211.300 139.124,210.200 139.460 M336.199 139.190 C 337.298 139.338,338.738 139.341,339.399 139.197 C 340.142 139.034,339.381 138.932,337.400 138.928 C 334.609 138.922,334.455 138.956,336.199 139.190 M202.600 141.885 C 201.375 142.180,200.998 142.728,202.176 142.503 C 202.746 142.394,203.310 142.146,203.430 141.952 C 203.549 141.759,203.592 141.621,203.524 141.646 C 203.456 141.672,203.040 141.779,202.600 141.885 M198.500 143.082 C 198.005 143.178,197.600 143.404,197.600 143.584 C 197.600 143.765,197.129 144.032,196.553 144.176 C 195.977 144.321,195.606 144.539,195.728 144.661 C 195.850 144.783,196.529 144.595,197.237 144.242 C 197.944 143.889,198.755 143.600,199.038 143.600 C 199.321 143.600,199.664 143.420,199.800 143.200 C 199.936 142.980,199.902 142.825,199.724 142.854 C 199.546 142.884,198.995 142.987,198.500 143.082 M192.200 145.885 C 190.975 146.180,190.598 146.728,191.776 146.503 C 192.346 146.394,192.910 146.146,193.030 145.952 C 193.149 145.759,193.192 145.621,193.124 145.646 C 193.056 145.672,192.640 145.779,192.200 145.885 M90.493 147.600 C 90.493 148.370,90.575 148.685,90.676 148.300 C 90.776 147.915,90.776 147.285,90.676 146.900 C 90.575 146.515,90.493 146.830,90.493 147.600 M187.400 148.056 C 183.107 150.286,182.800 150.457,182.800 150.617 C 182.800 150.871,184.115 150.325,185.200 149.621 C 185.750 149.264,187.055 148.561,188.100 148.058 C 189.145 147.555,190.000 147.067,190.000 146.972 C 190.000 146.710,189.966 146.724,187.400 148.056 M178.130 152.645 C 177.431 152.989,176.531 153.648,176.130 154.109 C 175.592 154.727,175.779 154.665,176.838 153.874 C 177.629 153.283,178.473 152.800,178.714 152.800 C 178.955 152.800,179.264 152.620,179.400 152.400 C 179.719 151.883,179.644 151.898,178.130 152.645 M88.352 155.113 C 88.221 155.907,88.279 156.281,88.501 156.059 C 88.703 155.857,88.801 155.267,88.719 154.746 C 88.593 153.945,88.537 154.002,88.352 155.113 M172.000 156.400 C 171.230 157.048,170.403 157.583,170.162 157.589 C 169.921 157.595,169.381 158.005,168.962 158.500 C 168.201 159.399,168.201 159.399,169.031 158.700 C 169.489 158.315,169.995 158.000,170.155 158.000 C 170.316 158.000,171.273 157.370,172.282 156.600 C 173.290 155.830,173.954 155.205,173.758 155.211 C 173.561 155.217,172.770 155.752,172.000 156.400 M165.380 160.832 C 165.233 161.070,164.547 161.610,163.856 162.031 C 163.128 162.475,162.868 162.798,163.238 162.799 C 163.589 162.799,164.219 162.419,164.638 161.953 C 165.057 161.487,165.760 160.958,166.200 160.778 C 166.846 160.514,166.870 160.446,166.324 160.425 C 165.952 160.411,165.527 160.595,165.380 160.832 M86.554 161.377 C 86.432 161.694,86.403 162.279,86.489 162.677 C 86.587 163.128,86.724 162.912,86.854 162.100 C 87.071 160.738,86.930 160.396,86.554 161.377 M154.702 170.130 C 152.338 172.588,149.932 175.230,149.356 176.000 L 148.309 177.400 149.591 176.000 C 150.296 175.230,152.873 172.575,155.318 170.100 C 157.763 167.625,159.592 165.613,159.382 165.630 C 159.172 165.646,157.066 167.671,154.702 170.130 M83.293 174.400 C 83.293 175.170,83.375 175.485,83.476 175.100 C 83.576 174.715,83.576 174.085,83.476 173.700 C 83.375 173.315,83.293 173.630,83.293 174.400 M147.280 178.080 C 147.016 178.344,146.800 178.800,146.800 179.093 C 146.800 179.385,146.530 179.729,146.200 179.855 C 145.870 179.982,145.600 180.361,145.600 180.697 C 145.600 181.331,146.492 180.300,147.503 178.497 C 148.066 177.495,147.996 177.364,147.280 178.080 M82.000 179.176 C 82.000 179.823,82.142 180.441,82.316 180.548 C 82.490 180.656,82.561 180.127,82.473 179.372 C 82.276 177.691,82.000 177.577,82.000 179.176 M84.000 183.725 C 84.000 183.794,84.585 184.379,85.300 185.025 L 86.600 186.200 85.425 184.900 C 84.330 183.688,84.000 183.416,84.000 183.725 M142.000 185.400 C 141.028 186.390,140.001 187.200,139.717 187.200 C 139.433 187.200,139.200 187.386,139.200 187.614 C 139.200 188.282,140.423 187.443,142.383 185.431 C 143.364 184.424,144.077 183.600,143.967 183.600 C 143.857 183.600,142.972 184.410,142.000 185.400 M92.757 187.319 C 92.933 187.494,94.410 187.582,96.039 187.515 L 99.000 187.393 95.718 187.196 C 93.913 187.088,92.580 187.143,92.757 187.319 M105.461 188.500 C 105.563 188.665,106.861 188.800,108.344 188.800 C 109.827 188.800,111.211 188.962,111.420 189.160 C 111.629 189.358,114.590 189.610,118.000 189.720 L 124.200 189.921 118.000 189.444 C 114.590 189.182,111.530 188.848,111.200 188.702 C 110.338 188.321,105.238 188.142,105.461 188.500 M135.329 189.478 C 134.850 189.572,134.220 189.936,133.929 190.288 C 133.462 190.853,133.494 190.879,134.200 190.505 C 134.640 190.273,135.450 189.896,136.000 189.668 C 137.033 189.241,136.836 189.185,135.329 189.478 M267.000 213.485 C 265.775 213.780,265.398 214.328,266.576 214.103 C 267.146 213.994,267.710 213.746,267.830 213.552 C 267.949 213.359,267.992 213.221,267.924 213.246 C 267.856 213.272,267.440 213.379,267.000 213.485 M277.118 213.671 C 277.273 213.820,278.877 214.000,280.682 214.071 C 282.487 214.142,283.837 214.078,283.682 213.929 C 283.527 213.780,281.923 213.600,280.118 213.529 C 278.313 213.458,276.963 213.522,277.118 213.671 M263.091 215.600 C 262.531 216.040,261.929 216.400,261.752 216.400 C 261.256 216.400,258.000 219.709,258.000 220.214 C 258.000 220.459,257.550 221.083,257.000 221.600 C 256.450 222.117,256.000 222.694,256.000 222.884 C 256.000 223.073,256.540 222.613,257.200 221.861 C 257.860 221.109,258.400 220.391,258.400 220.264 C 258.400 219.948,261.417 216.800,261.720 216.800 C 261.855 216.800,262.628 216.350,263.438 215.800 C 264.249 215.250,264.731 214.800,264.510 214.800 C 264.289 214.800,263.650 215.160,263.091 215.600 M294.000 215.591 C 297.267 215.923,303.035 216.092,302.767 215.849 C 302.675 215.766,299.990 215.605,296.800 215.492 C 292.970 215.357,292.019 215.390,294.000 215.591 M303.400 216.636 C 305.281 216.935,309.921 216.998,309.481 216.718 C 309.217 216.550,307.560 216.434,305.800 216.461 C 304.040 216.487,302.960 216.566,303.400 216.636 M319.400 224.800 C 319.400 225.638,319.535 226.240,319.700 226.138 C 319.865 226.036,320.000 225.434,320.000 224.800 C 320.000 224.166,319.865 223.564,319.700 223.462 C 319.535 223.360,319.400 223.962,319.400 224.800 M253.400 226.322 C 251.494 228.493,251.475 228.536,253.000 227.239 C 254.278 226.152,256.020 223.923,255.513 224.022 C 255.451 224.034,254.500 225.069,253.400 226.322 M318.554 228.177 C 318.432 228.494,318.403 229.079,318.489 229.477 C 318.587 229.928,318.724 229.712,318.854 228.900 C 319.071 227.538,318.930 227.196,318.554 228.177 M247.610 232.998 L 243.820 237.000 247.792 233.115 C 249.977 230.979,251.682 229.178,251.582 229.113 C 251.482 229.049,249.694 230.797,247.610 232.998 M317.820 230.900 C 317.462 232.053,317.337 233.562,317.614 233.392 C 317.777 233.290,317.985 232.576,318.075 231.804 C 318.239 230.402,318.113 229.955,317.820 230.900 M316.587 236.200 C 316.484 236.530,316.312 237.079,316.205 237.421 C 316.097 237.762,316.166 237.945,316.357 237.827 C 316.548 237.709,316.791 237.159,316.897 236.606 C 317.106 235.513,316.890 235.230,316.587 236.200 M242.400 237.818 C 241.850 238.111,240.770 239.018,240.000 239.834 L 238.600 241.317 239.881 240.398 C 240.585 239.892,241.254 239.236,241.368 238.939 C 241.482 238.643,241.829 238.400,242.138 238.400 C 242.448 238.400,242.926 238.130,243.200 237.800 C 243.777 237.105,243.737 237.106,242.400 237.818 M237.600 241.518 C 237.600 241.766,236.707 242.553,235.616 243.267 C 234.525 243.981,233.714 244.647,233.814 244.747 C 233.914 244.847,234.325 244.630,234.729 244.264 C 235.133 243.899,235.642 243.600,235.862 243.600 C 236.451 243.600,238.181 241.647,237.868 241.335 C 237.721 241.187,237.600 241.270,237.600 241.518 M231.800 245.705 C 231.140 246.188,230.540 246.723,230.467 246.892 C 230.393 247.061,230.176 247.200,229.984 247.200 C 229.793 247.200,228.972 247.650,228.162 248.200 C 227.351 248.750,226.869 249.200,227.090 249.200 C 227.311 249.200,227.950 248.840,228.509 248.400 C 229.069 247.960,229.695 247.600,229.901 247.600 C 230.107 247.600,230.602 247.240,231.000 246.800 C 231.398 246.360,231.947 246.000,232.219 246.000 C 232.492 246.000,232.818 245.730,232.945 245.400 C 233.233 244.649,233.245 244.646,231.800 245.705 M313.654 246.267 C 313.625 246.744,313.496 247.464,313.370 247.867 C 313.152 248.561,313.164 248.562,313.596 247.888 C 313.847 247.497,313.975 246.777,313.881 246.288 C 313.709 245.401,313.709 245.401,313.654 246.267 M312.620 250.500 C 312.262 251.653,312.137 253.162,312.414 252.992 C 312.577 252.890,312.785 252.176,312.875 251.404 C 313.039 250.002,312.913 249.555,312.620 250.500 M222.071 251.578 C 219.767 252.819,218.955 253.417,220.212 252.948 C 221.818 252.350,225.105 250.352,224.380 250.416 C 224.281 250.425,223.242 250.948,222.071 251.578 M213.200 255.979 C 211.550 256.813,209.750 257.694,209.200 257.937 C 208.243 258.360,208.251 258.368,209.400 258.121 C 210.630 257.858,215.498 255.457,216.180 254.778 C 216.747 254.213,216.472 254.324,213.200 255.979 M207.000 258.685 C 205.775 258.980,205.398 259.528,206.576 259.303 C 207.146 259.194,207.710 258.946,207.830 258.752 C 207.949 258.559,207.992 258.421,207.924 258.446 C 207.856 258.472,207.440 258.579,207.000 258.685 M203.400 260.000 L 202.200 260.305 203.276 260.353 C 203.868 260.379,204.464 260.220,204.600 260.000 C 204.736 259.780,204.792 259.621,204.724 259.647 C 204.656 259.673,204.060 259.832,203.400 260.000 M199.719 261.362 C 199.015 261.618,198.322 261.944,198.180 262.087 C 197.870 262.396,199.472 262.071,200.600 261.596 C 201.040 261.410,201.670 261.170,202.000 261.061 C 202.389 260.933,202.318 260.869,201.800 260.879 C 201.360 260.888,200.424 261.105,199.719 261.362 M195.600 262.688 C 195.050 262.787,194.420 263.045,194.200 263.262 C 193.698 263.758,196.028 263.255,196.580 262.748 C 196.789 262.557,196.879 262.425,196.780 262.454 C 196.681 262.484,196.150 262.590,195.600 262.688 M309.387 263.000 C 309.284 263.330,309.112 263.879,309.005 264.221 C 308.897 264.562,308.966 264.745,309.157 264.627 C 309.348 264.509,309.591 263.959,309.697 263.406 C 309.906 262.313,309.690 262.030,309.387 263.000 M191.400 263.867 C 190.960 263.963,190.240 264.201,189.800 264.397 C 188.945 264.778,185.839 265.531,183.696 265.878 C 182.979 265.994,182.309 266.223,182.208 266.388 C 182.005 266.715,185.603 266.170,187.200 265.630 C 187.750 265.445,189.010 265.061,190.000 264.777 C 190.990 264.493,191.971 264.112,192.180 263.930 C 192.389 263.749,192.479 263.621,192.380 263.646 C 192.281 263.672,191.840 263.771,191.400 263.867 M67.398 265.197 C 67.504 265.368,68.087 265.610,68.695 265.736 C 72.091 266.437,73.546 266.636,73.385 266.376 C 73.286 266.216,72.529 265.994,71.703 265.883 C 70.876 265.772,69.526 265.503,68.703 265.284 C 67.879 265.065,67.292 265.026,67.398 265.197 M308.352 266.313 C 308.221 267.107,308.279 267.481,308.501 267.259 C 308.703 267.057,308.801 266.467,308.719 265.946 C 308.593 265.145,308.537 265.202,308.352 266.313 M76.752 267.312 C 76.945 267.505,77.619 267.598,78.251 267.519 C 79.309 267.387,79.281 267.359,77.900 267.168 C 77.040 267.049,76.550 267.110,76.752 267.312 M178.657 267.107 C 178.553 267.276,179.172 267.348,180.034 267.265 C 180.895 267.183,181.600 267.045,181.600 266.958 C 181.600 266.660,178.847 266.800,178.657 267.107 M172.257 268.307 C 172.153 268.476,172.772 268.548,173.634 268.465 C 174.495 268.383,175.200 268.245,175.200 268.158 C 175.200 267.860,172.447 268.000,172.257 268.307 M90.400 269.479 C 91.390 269.556,92.560 269.786,93.000 269.990 C 93.991 270.450,97.994 270.712,97.739 270.300 C 97.636 270.135,96.584 270.000,95.400 270.000 C 94.216 270.000,93.136 269.820,93.000 269.600 C 92.864 269.380,91.818 269.231,90.676 269.270 L 88.600 269.340 90.400 269.479 M165.000 269.600 C 164.864 269.820,163.694 270.000,162.400 270.000 C 161.106 270.000,159.963 270.135,159.860 270.300 C 159.758 270.465,160.917 270.540,162.437 270.467 C 163.957 270.394,165.200 270.179,165.200 269.988 C 165.200 269.798,166.145 269.576,167.300 269.495 L 169.400 269.348 167.324 269.274 C 166.182 269.233,165.136 269.380,165.000 269.600 M307.420 270.100 C 307.062 271.253,306.937 272.762,307.214 272.592 C 307.377 272.490,307.585 271.776,307.675 271.004 C 307.839 269.602,307.713 269.155,307.420 270.100 M103.518 271.272 C 103.673 271.421,105.367 271.601,107.282 271.672 C 109.197 271.742,110.637 271.678,110.482 271.528 C 110.327 271.379,108.633 271.199,106.718 271.128 C 104.803 271.058,103.363 271.122,103.518 271.272 M150.404 271.099 C 148.316 271.173,146.479 271.360,146.322 271.516 C 146.165 271.672,147.783 271.743,149.918 271.673 C 152.053 271.604,153.971 271.379,154.180 271.173 C 154.389 270.968,154.479 270.837,154.380 270.883 C 154.281 270.929,152.492 271.026,150.404 271.099 M54.621 272.500 C 54.207 273.843,53.964 275.369,54.202 275.131 C 54.523 274.811,55.189 272.000,54.945 272.000 C 54.852 272.000,54.706 272.225,54.621 272.500 M305.387 277.400 C 305.284 277.730,305.112 278.279,305.005 278.621 C 304.897 278.962,304.966 279.145,305.157 279.027 C 305.348 278.909,305.591 278.359,305.697 277.806 C 305.906 276.713,305.690 276.430,305.387 277.400 M50.054 290.076 C 50.025 290.668,49.840 291.252,49.644 291.373 C 49.449 291.494,49.216 292.212,49.128 292.968 C 49.039 293.725,49.110 294.256,49.284 294.148 C 49.458 294.041,49.600 293.459,49.600 292.856 C 49.600 292.253,49.795 291.565,50.034 291.326 C 50.272 291.088,50.387 290.467,50.288 289.946 C 50.120 289.060,50.105 289.068,50.054 290.076 M46.954 301.377 C 46.832 301.694,46.803 302.279,46.889 302.677 C 46.987 303.128,47.124 302.912,47.254 302.100 C 47.471 300.738,47.330 300.396,46.954 301.377 M294.300 301.814 C 293.301 303.150,293.431 303.523,294.446 302.233 C 294.911 301.642,295.226 301.095,295.146 301.018 C 295.066 300.941,294.685 301.300,294.300 301.814 M46.155 304.300 C 46.034 304.685,45.770 305.413,45.567 305.919 C 45.365 306.424,45.218 307.234,45.241 307.719 C 45.273 308.413,45.350 308.345,45.604 307.400 C 45.782 306.740,46.111 305.615,46.336 304.900 C 46.560 304.185,46.661 303.600,46.560 303.600 C 46.458 303.600,46.276 303.915,46.155 304.300 M292.529 304.500 C 292.084 304.995,291.576 305.670,291.401 306.000 C 291.063 306.637,291.155 306.550,292.776 304.700 C 293.306 304.095,293.649 303.600,293.539 303.600 C 293.429 303.600,292.975 304.005,292.529 304.500 M44.220 311.300 C 43.862 312.453,43.737 313.962,44.014 313.792 C 44.177 313.690,44.385 312.976,44.475 312.204 C 44.639 310.802,44.513 310.355,44.220 311.300 M285.978 312.300 L 284.600 313.800 286.100 312.422 C 286.925 311.663,287.600 310.988,287.600 310.922 C 287.600 310.616,287.262 310.904,285.978 312.300 M41.790 320.960 C 41.639 322.368,41.669 323.792,41.858 324.124 C 42.073 324.503,42.224 323.552,42.265 321.564 C 42.344 317.737,42.160 317.503,41.790 320.960 M268.645 323.528 C 268.533 323.708,268.973 323.777,269.621 323.682 C 270.270 323.587,270.800 323.440,270.800 323.355 C 270.800 323.050,268.843 323.207,268.645 323.528 M253.200 328.295 C 252.210 328.381,251.273 328.575,251.119 328.727 C 250.964 328.879,251.684 328.940,252.719 328.863 C 253.753 328.786,254.771 328.560,254.980 328.361 C 255.189 328.163,255.279 328.031,255.180 328.070 C 255.081 328.108,254.190 328.210,253.200 328.295 " stroke="none" fill="#959595" fill-rule="evenodd"></path><path id="path3" d="M149.000 74.678 C 148.120 74.757,147.040 74.990,146.600 75.197 C 146.160 75.403,145.260 75.641,144.600 75.726 C 143.524 75.864,143.553 75.886,144.876 75.940 C 145.688 75.973,146.464 75.820,146.600 75.600 C 146.736 75.380,147.602 75.197,148.524 75.194 C 149.446 75.191,150.470 75.013,150.800 74.800 C 151.130 74.587,151.220 74.440,151.000 74.473 C 150.780 74.507,149.880 74.599,149.000 74.678 M357.700 75.817 C 358.525 76.706,359.200 77.641,359.200 77.893 C 359.200 78.146,359.363 78.454,359.563 78.577 C 360.580 79.206,359.312 77.092,357.866 75.748 L 356.200 74.200 357.700 75.817 M140.600 76.685 C 139.375 76.980,138.998 77.528,140.176 77.303 C 140.746 77.194,141.310 76.946,141.430 76.752 C 141.549 76.559,141.592 76.421,141.524 76.446 C 141.456 76.472,141.040 76.579,140.600 76.685 M360.198 81.195 C 360.199 82.254,360.335 83.038,360.500 82.937 C 360.885 82.701,360.879 80.344,360.492 79.735 C 360.329 79.479,360.197 80.136,360.198 81.195 M359.420 85.700 C 359.062 86.853,358.937 88.362,359.214 88.192 C 359.377 88.090,359.585 87.376,359.675 86.604 C 359.839 85.202,359.713 84.755,359.420 85.700 M118.723 88.609 C 117.691 89.594,116.979 90.400,117.140 90.400 C 117.301 90.400,118.228 89.590,119.200 88.600 C 121.477 86.280,121.158 86.286,118.723 88.609 M356.620 95.700 C 356.262 96.853,356.137 98.362,356.414 98.192 C 356.577 98.090,356.785 97.376,356.875 96.604 C 357.039 95.202,356.913 94.755,356.620 95.700 M355.168 101.300 C 355.049 102.160,355.110 102.650,355.312 102.448 C 355.505 102.255,355.598 101.581,355.519 100.949 C 355.387 99.891,355.359 99.919,355.168 101.300 M354.154 105.377 C 354.032 105.694,354.003 106.279,354.089 106.677 C 354.187 107.128,354.324 106.912,354.454 106.100 C 354.671 104.738,354.530 104.396,354.154 105.377 M103.985 106.518 C 103.146 107.783,102.731 108.890,103.205 108.597 C 103.422 108.463,103.600 108.153,103.600 107.908 C 103.600 107.663,103.899 107.133,104.264 106.729 C 104.630 106.325,104.848 105.914,104.749 105.816 C 104.650 105.717,104.307 106.033,103.985 106.518 M353.387 108.200 C 353.284 108.530,353.112 109.079,353.005 109.421 C 352.897 109.762,352.966 109.945,353.157 109.827 C 353.348 109.709,353.591 109.159,353.697 108.606 C 353.906 107.513,353.690 107.230,353.387 108.200 M351.152 116.713 C 351.021 117.507,351.079 117.881,351.301 117.659 C 351.503 117.457,351.601 116.867,351.519 116.346 C 351.393 115.545,351.337 115.602,351.152 116.713 M350.267 119.467 C 350.120 119.613,350.000 120.233,350.000 120.843 C 350.000 121.453,349.840 122.052,349.644 122.173 C 349.449 122.294,349.216 123.012,349.128 123.768 C 349.039 124.525,349.110 125.056,349.284 124.948 C 349.458 124.841,349.600 124.234,349.600 123.600 C 349.600 122.966,349.760 122.348,349.956 122.227 C 350.151 122.106,350.385 121.376,350.475 120.604 C 350.654 119.074,350.655 119.079,350.267 119.467 M96.832 123.476 C 96.814 123.958,96.620 124.464,96.400 124.600 C 96.180 124.736,96.021 125.332,96.046 125.924 C 96.081 126.724,96.138 126.795,96.267 126.200 C 96.363 125.760,96.633 125.013,96.867 124.539 C 97.101 124.066,97.196 123.436,97.078 123.139 C 96.954 122.829,96.850 122.972,96.832 123.476 M347.968 128.100 C 347.849 128.960,347.910 129.450,348.112 129.248 C 348.305 129.055,348.398 128.381,348.319 127.749 C 348.187 126.691,348.159 126.719,347.968 128.100 M95.254 127.867 C 95.225 128.344,95.096 129.064,94.970 129.467 C 94.752 130.161,94.764 130.162,95.196 129.488 C 95.447 129.097,95.575 128.377,95.481 127.888 C 95.309 127.001,95.309 127.001,95.254 127.867 M347.254 130.667 C 347.225 131.144,347.096 131.864,346.970 132.267 C 346.752 132.961,346.764 132.962,347.196 132.288 C 347.447 131.897,347.575 131.177,347.481 130.688 C 347.309 129.801,347.309 129.801,347.254 130.667 M94.154 131.777 C 94.032 132.094,94.003 132.679,94.089 133.077 C 94.187 133.528,94.324 133.312,94.454 132.500 C 94.671 131.138,94.530 130.796,94.154 131.777 M245.200 133.261 C 243.550 133.442,241.030 133.698,239.600 133.829 C 238.170 133.960,236.873 134.188,236.717 134.336 C 236.562 134.484,237.732 134.461,239.317 134.283 C 240.903 134.106,243.460 133.866,245.000 133.749 C 246.540 133.633,247.971 133.372,248.180 133.169 C 248.389 132.966,248.479 132.830,248.380 132.866 C 248.281 132.903,246.850 133.080,245.200 133.261 M298.318 133.269 C 298.473 133.417,299.897 133.597,301.482 133.669 C 303.067 133.741,304.237 133.679,304.082 133.531 C 303.927 133.383,302.503 133.203,300.918 133.131 C 299.333 133.059,298.163 133.121,298.318 133.269 M305.200 134.225 C 306.603 134.535,309.118 134.590,308.943 134.307 C 308.838 134.138,307.818 134.021,306.676 134.046 C 305.534 134.072,304.870 134.152,305.200 134.225 M345.029 135.962 L 343.858 137.400 345.209 136.113 C 345.951 135.405,346.478 134.758,346.379 134.675 C 346.281 134.592,345.673 135.171,345.029 135.962 M231.400 135.200 L 229.800 135.486 231.276 135.543 C 232.088 135.574,232.864 135.420,233.000 135.200 C 233.136 134.980,233.192 134.826,233.124 134.857 C 233.056 134.888,232.280 135.042,231.400 135.200 M313.519 135.260 C 313.673 135.404,314.647 135.586,315.681 135.663 C 316.716 135.740,317.436 135.685,317.281 135.540 C 317.127 135.396,316.153 135.214,315.119 135.137 C 314.084 135.060,313.364 135.115,313.519 135.260 M225.000 136.400 L 223.400 136.686 224.876 136.743 C 225.688 136.774,226.464 136.620,226.600 136.400 C 226.736 136.180,226.792 136.026,226.724 136.057 C 226.656 136.088,225.880 136.242,225.000 136.400 M321.960 136.520 C 322.146 136.706,322.906 136.796,323.649 136.719 C 324.967 136.583,324.958 136.575,323.310 136.380 C 322.381 136.271,321.773 136.333,321.960 136.520 M92.752 137.913 C 92.621 138.707,92.679 139.081,92.901 138.859 C 93.103 138.657,93.201 138.067,93.119 137.546 C 92.993 136.745,92.937 136.802,92.752 137.913 M216.200 138.291 C 215.540 138.385,214.829 138.628,214.620 138.831 C 214.411 139.034,213.747 139.200,213.144 139.200 C 212.541 139.200,211.959 139.342,211.852 139.516 C 211.744 139.690,212.275 139.761,213.032 139.672 C 213.788 139.584,214.506 139.351,214.627 139.156 C 214.748 138.960,215.366 138.800,216.000 138.800 C 216.634 138.800,217.264 138.620,217.400 138.400 C 217.536 138.180,217.592 138.027,217.524 138.060 C 217.456 138.093,216.860 138.197,216.200 138.291 M332.800 138.693 C 333.350 138.794,334.006 139.046,334.258 139.252 C 334.741 139.649,339.865 139.868,340.226 139.508 C 340.342 139.392,339.142 139.285,337.560 139.270 C 335.977 139.255,334.493 139.053,334.261 138.821 C 334.030 138.590,333.381 138.425,332.820 138.454 L 331.800 138.509 332.800 138.693 M209.000 140.291 C 207.284 140.535,206.920 141.072,208.604 140.875 C 209.376 140.785,210.106 140.551,210.227 140.356 C 210.348 140.160,210.392 140.027,210.324 140.060 C 210.256 140.093,209.660 140.197,209.000 140.291 M201.200 142.818 C 200.762 143.115,200.924 143.152,201.800 142.956 C 203.271 142.627,203.590 142.398,202.567 142.406 C 202.145 142.409,201.530 142.595,201.200 142.818 M199.200 143.467 C 197.916 143.905,196.000 144.848,196.000 145.042 C 196.000 145.155,196.135 145.183,196.300 145.105 C 196.683 144.923,198.311 144.217,199.600 143.675 C 200.612 143.249,200.306 143.091,199.200 143.467 M180.498 151.887 C 178.902 152.681,177.661 153.394,177.739 153.472 C 177.918 153.651,183.600 150.861,183.600 150.595 C 183.600 150.332,183.761 150.265,180.498 151.887 M88.752 152.713 C 88.621 153.507,88.679 153.881,88.901 153.659 C 89.103 153.457,89.201 152.867,89.119 152.346 C 88.993 151.545,88.937 151.602,88.752 152.713 M170.856 157.613 C 169.616 158.646,170.175 158.635,171.491 157.600 C 172.050 157.160,172.349 156.806,172.154 156.813 C 171.959 156.821,171.375 157.181,170.856 157.613 M85.552 164.713 C 85.421 165.507,85.479 165.881,85.701 165.659 C 85.903 165.457,86.001 164.867,85.919 164.346 C 85.793 163.545,85.737 163.602,85.552 164.713 M158.967 166.638 C 157.944 167.576,157.846 167.729,158.685 167.076 C 159.392 166.526,160.202 165.994,160.485 165.893 C 160.768 165.792,160.895 165.595,160.767 165.455 C 160.638 165.315,159.828 165.847,158.967 166.638 M154.587 170.900 L 152.200 173.400 154.700 171.013 C 157.022 168.795,157.383 168.400,157.087 168.400 C 157.026 168.400,155.901 169.525,154.587 170.900 M150.400 175.200 C 149.703 176.080,149.223 176.800,149.333 176.800 C 149.443 176.800,150.103 176.080,150.800 175.200 C 151.497 174.320,151.977 173.600,151.867 173.600 C 151.757 173.600,151.097 174.320,150.400 175.200 M81.867 177.867 C 81.322 178.411,81.644 180.232,82.456 181.200 L 83.295 182.200 82.609 181.055 C 82.216 180.400,81.995 179.416,82.092 178.755 C 82.275 177.505,82.266 177.468,81.867 177.867 M147.064 179.010 C 146.658 180.169,145.838 181.486,144.757 182.715 C 143.869 183.725,143.892 183.719,145.101 182.625 C 145.816 181.979,146.400 181.273,146.400 181.057 C 146.400 180.840,146.688 180.344,147.041 179.955 C 147.394 179.565,147.605 179.016,147.511 178.733 C 147.403 178.408,147.239 178.508,147.064 179.010 M88.200 187.038 C 90.074 187.339,92.709 187.377,92.538 187.100 C 92.436 186.935,91.238 186.825,89.876 186.854 C 88.514 186.884,87.760 186.967,88.200 187.038 M139.200 188.200 C 138.926 188.530,138.465 188.800,138.175 188.800 C 137.885 188.800,137.546 188.963,137.423 189.163 C 137.016 189.821,138.734 189.136,139.436 188.360 C 139.814 187.942,140.028 187.600,139.911 187.600 C 139.794 187.600,139.474 187.870,139.200 188.200 M101.600 188.284 C 103.250 188.353,104.960 188.581,105.400 188.789 C 106.369 189.249,111.603 189.523,111.339 189.100 C 111.237 188.935,109.914 188.800,108.400 188.800 C 106.886 188.800,105.536 188.620,105.400 188.400 C 105.261 188.175,103.720 188.035,101.876 188.079 L 98.600 188.159 101.600 188.284 M117.957 190.119 C 118.133 190.294,119.610 190.382,121.239 190.315 L 124.200 190.193 120.918 189.996 C 119.113 189.888,117.780 189.943,117.957 190.119 M135.400 189.885 C 134.960 189.991,134.432 190.237,134.227 190.432 C 134.022 190.627,134.451 190.615,135.181 190.405 C 137.243 189.814,137.417 189.400,135.400 189.885 M267.460 213.100 C 267.358 213.265,268.832 213.352,270.737 213.293 C 276.846 213.104,277.532 212.942,272.524 212.870 C 269.842 212.831,267.563 212.935,267.460 213.100 M262.800 215.400 C 262.526 215.730,262.092 216.000,261.836 216.000 C 261.350 216.000,257.600 219.626,257.600 220.097 C 257.600 220.245,258.435 219.473,259.455 218.383 C 260.475 217.292,261.527 216.400,261.793 216.400 C 262.059 216.400,262.602 216.040,263.000 215.600 C 263.398 215.160,263.628 214.800,263.511 214.800 C 263.394 214.800,263.074 215.070,262.800 215.400 M303.119 216.070 C 303.274 216.218,304.750 216.434,306.400 216.549 C 308.050 216.664,310.697 216.904,312.283 217.082 C 313.868 217.260,315.038 217.284,314.883 217.136 C 314.727 216.988,313.520 216.766,312.200 216.642 C 304.856 215.952,302.866 215.827,303.119 216.070 M255.770 222.610 C 254.954 223.606,254.357 224.481,254.443 224.556 C 254.530 224.630,255.278 223.815,256.106 222.745 C 258.005 220.293,257.753 220.191,255.770 222.610 M252.607 226.793 C 251.752 227.669,251.130 228.445,251.226 228.518 C 251.322 228.591,252.098 227.874,252.952 226.925 C 254.901 224.759,254.677 224.673,252.607 226.793 M319.387 226.600 C 319.284 226.930,319.112 227.479,319.005 227.821 C 318.897 228.162,318.966 228.345,319.157 228.227 C 319.348 228.109,319.591 227.559,319.697 227.006 C 319.906 225.913,319.690 225.630,319.387 226.600 M249.578 230.700 L 248.200 232.200 249.700 230.822 C 251.096 229.538,251.384 229.200,251.078 229.200 C 251.012 229.200,250.337 229.875,249.578 230.700 M318.267 230.667 C 318.120 230.813,318.000 231.433,318.000 232.043 C 318.000 232.653,317.840 233.252,317.644 233.373 C 317.449 233.494,317.216 234.212,317.128 234.968 C 317.039 235.725,317.110 236.256,317.284 236.148 C 317.458 236.041,317.600 235.434,317.600 234.800 C 317.600 234.166,317.760 233.548,317.956 233.427 C 318.151 233.306,318.385 232.576,318.475 231.804 C 318.654 230.274,318.655 230.279,318.267 230.667 M245.387 234.900 L 243.000 237.400 245.500 235.013 C 246.875 233.699,248.000 232.574,248.000 232.513 C 248.000 232.217,247.605 232.578,245.387 234.900 M239.923 239.409 C 238.891 240.394,238.181 241.200,238.345 241.200 C 238.509 241.200,239.263 240.552,240.022 239.760 C 240.780 238.968,241.760 238.169,242.200 237.985 C 242.717 237.769,242.788 237.645,242.400 237.635 C 242.070 237.626,240.955 238.424,239.923 239.409 M316.154 238.177 C 316.032 238.494,316.003 239.079,316.089 239.477 C 316.187 239.928,316.324 239.712,316.454 238.900 C 316.671 237.538,316.530 237.196,316.154 238.177 M235.246 243.021 C 234.281 243.779,233.651 244.397,233.846 244.394 C 234.041 244.391,234.920 243.768,235.800 243.009 C 237.864 241.230,237.513 241.237,235.246 243.021 M314.220 245.300 C 313.862 246.453,313.737 247.962,314.014 247.792 C 314.177 247.690,314.385 246.976,314.475 246.204 C 314.639 244.802,314.513 244.355,314.220 245.300 M228.456 247.613 C 227.216 248.646,227.775 248.635,229.091 247.600 C 229.650 247.160,229.949 246.806,229.754 246.813 C 229.559 246.821,228.975 247.181,228.456 247.613 M312.954 250.577 C 312.832 250.894,312.803 251.479,312.889 251.877 C 312.987 252.328,313.124 252.112,313.254 251.300 C 313.471 249.938,313.330 249.596,312.954 250.577 M312.187 253.400 C 312.084 253.730,311.912 254.279,311.805 254.621 C 311.697 254.962,311.766 255.145,311.957 255.027 C 312.148 254.909,312.391 254.359,312.497 253.806 C 312.706 252.713,312.490 252.430,312.187 253.400 M211.376 256.587 C 210.949 256.910,210.240 257.201,209.800 257.234 C 209.185 257.279,209.152 257.333,209.656 257.467 C 210.017 257.563,210.917 257.273,211.656 256.822 C 212.395 256.372,212.809 256.002,212.576 256.001 C 212.344 256.001,211.804 256.264,211.376 256.587 M310.954 257.777 C 310.832 258.094,310.803 258.679,310.889 259.077 C 310.987 259.528,311.124 259.312,311.254 258.500 C 311.471 257.138,311.330 256.796,310.954 257.777 M199.400 261.085 C 198.175 261.380,197.798 261.928,198.976 261.703 C 199.546 261.594,200.110 261.346,200.230 261.152 C 200.349 260.959,200.392 260.821,200.324 260.846 C 200.256 260.872,199.840 260.979,199.400 261.085 M192.880 263.195 C 192.154 263.367,191.447 263.620,191.309 263.758 C 190.924 264.143,193.748 263.542,194.180 263.147 C 194.389 262.956,194.479 262.818,194.380 262.841 C 194.281 262.863,193.606 263.023,192.880 263.195 M188.600 264.400 L 187.400 264.705 188.476 264.753 C 189.068 264.779,189.664 264.620,189.800 264.400 C 189.936 264.180,189.992 264.021,189.924 264.047 C 189.856 264.073,189.260 264.232,188.600 264.400 M61.045 264.728 C 60.933 264.908,61.373 264.977,62.021 264.882 C 62.670 264.787,63.200 264.640,63.200 264.555 C 63.200 264.250,61.243 264.407,61.045 264.728 M64.800 264.558 C 64.800 264.645,65.505 264.783,66.366 264.865 C 67.228 264.948,67.847 264.876,67.743 264.707 C 67.553 264.400,64.800 264.260,64.800 264.558 M309.067 264.667 C 308.920 264.813,308.800 265.433,308.800 266.043 C 308.800 266.653,308.640 267.252,308.444 267.373 C 308.249 267.494,308.016 268.212,307.928 268.968 C 307.839 269.725,307.910 270.256,308.084 270.148 C 308.258 270.041,308.400 269.434,308.400 268.800 C 308.400 268.166,308.560 267.548,308.756 267.427 C 308.951 267.306,309.185 266.576,309.275 265.804 C 309.454 264.274,309.455 264.279,309.067 264.667 M70.231 265.650 C 70.321 265.796,71.101 265.983,71.964 266.065 C 72.827 266.147,73.459 266.095,73.369 265.950 C 73.279 265.804,72.499 265.617,71.636 265.535 C 70.773 265.453,70.141 265.505,70.231 265.650 M183.200 265.666 C 182.430 265.877,181.033 266.190,180.096 266.362 C 179.159 266.534,178.289 266.777,178.163 266.904 C 177.824 267.243,181.289 266.749,182.074 266.346 C 182.444 266.156,183.109 266.000,183.550 266.000 C 183.992 266.000,184.464 265.820,184.600 265.600 C 184.736 265.380,184.792 265.218,184.724 265.241 C 184.656 265.263,183.970 265.455,183.200 265.666 M74.000 266.558 C 74.000 266.645,74.705 266.783,75.566 266.865 C 76.428 266.948,77.047 266.876,76.943 266.707 C 76.753 266.400,74.000 266.260,74.000 266.558 M79.861 267.700 C 79.963 267.865,80.991 268.000,82.144 268.000 C 83.297 268.000,84.411 268.163,84.620 268.361 C 85.083 268.801,88.799 269.122,88.538 268.700 C 88.436 268.535,87.589 268.400,86.656 268.400 C 85.723 268.400,84.789 268.236,84.580 268.035 C 84.121 267.595,79.596 267.273,79.861 267.700 M170.600 268.400 L 169.000 268.686 170.476 268.743 C 171.288 268.774,172.064 268.620,172.200 268.400 C 172.336 268.180,172.392 268.026,172.324 268.057 C 172.256 268.088,171.480 268.242,170.600 268.400 M55.221 269.761 C 54.938 270.289,54.804 270.964,54.922 271.261 C 55.052 271.588,55.149 271.477,55.168 270.980 C 55.186 270.529,55.413 269.947,55.673 269.687 C 55.934 269.426,56.054 269.121,55.941 269.007 C 55.827 268.894,55.503 269.233,55.221 269.761 M93.119 269.665 C 93.273 269.810,94.427 269.990,95.681 270.065 C 96.936 270.139,97.836 270.081,97.681 269.935 C 97.527 269.790,96.373 269.610,95.119 269.535 C 93.864 269.461,92.964 269.519,93.119 269.665 M162.200 269.671 C 160.660 269.861,158.140 270.172,156.600 270.362 L 153.800 270.707 156.600 270.562 C 161.519 270.308,164.589 269.943,164.980 269.566 C 165.189 269.365,165.279 269.228,165.180 269.263 C 165.081 269.298,163.740 269.481,162.200 269.671 M103.518 270.872 C 103.673 271.021,105.367 271.201,107.282 271.272 C 109.197 271.342,110.637 271.278,110.482 271.128 C 110.327 270.979,108.633 270.799,106.718 270.728 C 104.803 270.658,103.363 270.722,103.518 270.872 M146.234 271.100 C 146.069 271.265,138.074 271.496,128.467 271.613 L 111.000 271.825 128.400 271.742 C 137.970 271.697,147.600 271.498,149.800 271.301 L 153.800 270.943 150.167 270.871 C 148.168 270.832,146.398 270.935,146.234 271.100 M306.987 273.000 C 306.884 273.330,306.712 273.879,306.605 274.221 C 306.497 274.562,306.566 274.745,306.757 274.627 C 306.948 274.509,307.191 273.959,307.297 273.406 C 307.506 272.313,307.290 272.030,306.987 273.000 M53.754 274.577 C 53.632 274.894,53.603 275.479,53.689 275.877 C 53.787 276.328,53.924 276.112,54.054 275.300 C 54.271 273.938,54.130 273.596,53.754 274.577 M305.787 277.400 C 305.684 277.730,305.512 278.279,305.405 278.621 C 305.297 278.962,305.366 279.145,305.557 279.027 C 305.748 278.909,305.991 278.359,306.097 277.806 C 306.306 276.713,306.090 276.430,305.787 277.400 M51.552 283.113 C 51.421 283.907,51.479 284.281,51.701 284.059 C 51.903 283.857,52.001 283.267,51.919 282.746 C 51.793 281.945,51.737 282.002,51.552 283.113 M302.987 285.400 C 302.884 285.730,302.712 286.279,302.605 286.621 C 302.497 286.962,302.566 287.145,302.757 287.027 C 302.948 286.909,303.191 286.359,303.297 285.806 C 303.506 284.713,303.290 284.430,302.987 285.400 M49.820 288.900 C 49.462 290.053,49.337 291.562,49.614 291.392 C 49.777 291.290,49.985 290.576,50.075 289.804 C 50.239 288.402,50.113 287.955,49.820 288.900 M294.799 301.700 C 294.210 302.504,294.113 302.784,294.545 302.433 C 295.201 301.900,296.193 300.400,295.889 300.400 C 295.813 300.400,295.322 300.985,294.799 301.700 M46.667 301.067 C 46.520 301.213,46.400 301.833,46.400 302.443 C 46.400 303.053,46.241 303.651,46.048 303.770 C 45.854 303.890,45.610 304.435,45.506 304.982 C 45.401 305.529,45.470 305.881,45.658 305.764 C 45.846 305.648,46.000 305.214,46.000 304.800 C 46.000 304.386,46.160 303.948,46.356 303.827 C 46.551 303.706,46.785 302.976,46.875 302.204 C 47.054 300.674,47.055 300.679,46.667 301.067 M44.352 309.913 C 44.221 310.707,44.279 311.081,44.501 310.859 C 44.703 310.657,44.801 310.067,44.719 309.546 C 44.593 308.745,44.537 308.802,44.352 309.913 M286.981 311.639 C 286.112 312.540,285.040 313.429,284.600 313.614 C 284.047 313.846,283.990 313.957,284.415 313.975 C 284.753 313.989,285.917 313.100,287.000 312.000 C 288.083 310.900,288.878 310.000,288.766 310.000 C 288.654 310.000,287.851 310.738,286.981 311.639 M42.352 317.113 C 42.221 317.907,42.279 318.281,42.501 318.059 C 42.703 317.857,42.801 317.267,42.719 316.746 C 42.593 315.945,42.537 316.002,42.352 317.113 M276.962 319.700 C 276.206 320.592,276.207 320.594,277.000 319.952 C 277.440 319.596,278.070 319.205,278.400 319.084 C 278.909 318.897,278.904 318.858,278.362 318.832 C 278.011 318.814,277.381 319.205,276.962 319.700 M41.467 320.667 C 41.108 321.025,41.138 323.683,41.506 324.262 C 41.668 324.516,41.800 323.752,41.800 322.563 C 41.800 321.375,41.785 320.402,41.767 320.401 C 41.748 320.401,41.613 320.520,41.467 320.667 M273.656 321.613 C 272.416 322.646,272.975 322.635,274.291 321.600 C 274.850 321.160,275.149 320.806,274.954 320.813 C 274.759 320.821,274.175 321.181,273.656 321.613 M256.100 328.276 C 256.485 328.376,257.115 328.376,257.500 328.276 C 257.885 328.175,257.570 328.093,256.800 328.093 C 256.030 328.093,255.715 328.175,256.100 328.276 M148.200 329.200 L 45.000 329.402 148.076 329.501 C 216.469 329.567,251.236 329.465,251.400 329.200 C 251.536 328.980,251.592 328.844,251.524 328.899 C 251.456 328.953,204.960 329.089,148.200 329.200 " stroke="none" fill="#747474" fill-rule="evenodd"></path><path id="path4" d="M357.754 90.577 C 357.632 90.894,357.603 91.479,357.689 91.877 C 357.787 92.328,357.924 92.112,358.054 91.300 C 358.271 89.938,358.130 89.596,357.754 90.577 M250.512 132.695 C 251.564 132.777,253.184 132.776,254.112 132.692 C 255.040 132.608,254.180 132.541,252.200 132.542 C 250.220 132.543,249.460 132.612,250.512 132.695 M293.100 132.693 C 294.035 132.777,295.565 132.777,296.500 132.693 C 297.435 132.609,296.670 132.540,294.800 132.540 C 292.930 132.540,292.165 132.609,293.100 132.693 M233.900 134.682 C 234.395 134.778,235.205 134.778,235.700 134.682 C 236.195 134.587,235.790 134.509,234.800 134.509 C 233.810 134.509,233.405 134.587,233.900 134.682 M310.105 134.687 C 310.714 134.779,311.614 134.777,312.105 134.682 C 312.597 134.587,312.100 134.511,311.000 134.514 C 309.900 134.517,309.497 134.595,310.105 134.687 M329.300 137.876 C 329.685 137.976,330.315 137.976,330.700 137.876 C 331.085 137.775,330.770 137.693,330.000 137.693 C 329.230 137.693,328.915 137.775,329.300 137.876 M291.900 215.089 C 292.615 215.178,293.785 215.178,294.500 215.089 C 295.215 215.001,294.630 214.928,293.200 214.928 C 291.770 214.928,291.185 215.001,291.900 215.089 M175.457 267.507 C 175.353 267.676,175.972 267.748,176.834 267.665 C 177.695 267.583,178.400 267.445,178.400 267.358 C 178.400 267.060,175.647 267.200,175.457 267.507 M99.091 270.689 C 99.801 270.777,101.061 270.779,101.891 270.692 C 102.721 270.605,102.140 270.533,100.600 270.531 C 99.060 270.529,98.381 270.600,99.091 270.689 M50.554 286.577 C 50.432 286.894,50.403 287.479,50.489 287.877 C 50.587 288.328,50.724 288.112,50.854 287.300 C 51.071 285.938,50.930 285.596,50.554 286.577 M289.404 308.396 C 288.774 309.054,288.335 309.656,288.429 309.734 C 288.523 309.812,289.113 309.274,289.739 308.538 C 291.154 306.877,290.945 306.788,289.404 308.396 " stroke="none" fill="#7c7c7c" fill-rule="evenodd"></path></g></svg>