<?xml version="1.0" standalone="no"?>
<!DOCTYPE svg PUBLIC "-//W3C//DTD SVG 20010904//EN"
 "http://www.w3.org/TR/2001/REC-SVG-20010904/DTD/svg10.dtd">
<svg version="1.0" xmlns="http://www.w3.org/2000/svg"
 width="700.000000pt" height="700.000000pt" viewBox="0 0 700.000000 700.000000"
 preserveAspectRatio="xMidYMid meet">
<metadata>
Created by potrace 1.14, written by Peter Selinger 2001-2017
</metadata>
<g transform="translate(0.000000,700.000000) scale(0.100000,-0.100000)"
fill="#000000" stroke="none">
<path d="M2200 5692 c-18 -5 -50 -45 -110 -134 -47 -70 -92 -140 -101 -155
-26 -44 -139 -225 -159 -253 -41 -60 -100 -179 -100 -203 0 -54 4 -62 688
-1437 280 -564 506 -1027 502 -1030 -5 -3 -100 -6 -212 -8 -309 -3 -343 -10
-380 -71 -12 -20 -111 -181 -220 -358 -109 -177 -205 -338 -213 -357 -30 -71
-10 -142 47 -169 43 -20 405 -26 1823 -30 914 -2 931 -2 964 18 35 21 59 58
322 493 84 139 129 224 129 242 0 46 -21 89 -704 1463 -278 560 -506 1019
-506 1020 0 1 104 1 232 -1 257 -4 289 -1 319 31 48 50 408 613 470 735 16 32
29 71 29 87 0 34 -33 95 -52 96 -7 0 -22 2 -33 4 -11 3 -67 7 -125 10 -166 8
-2582 14 -2610 7z m100 -112 c8 -5 11 -10 5 -10 -5 0 -17 5 -25 10 -8 5 -10
10 -5 10 6 0 17 -5 25 -10z m2153 -7 c-7 -2 -19 -2 -25 0 -7 3 -2 5 12 5 14 0
19 -2 13 -5z m50 0 c-7 -2 -19 -2 -25 0 -7 3 -2 5 12 5 14 0 19 -2 13 -5z
m391 -18 c-4 -8 -8 -15 -10 -15 -2 0 -4 7 -4 15 0 8 4 15 10 15 5 0 7 -7 4
-15z m-1129 -836 c4 -5 -445 -732 -465 -752 -7 -8 -380 726 -380 749 0 11 834
13 845 3z m119 -105 c3 -8 2 -12 -4 -9 -6 3 -10 10 -10 16 0 14 7 11 14 -7z
m24 -49 c-3 -3 -9 2 -12 12 -6 14 -5 15 5 6 7 -7 10 -15 7 -18z m-491 -677
c-3 -7 -5 -2 -5 12 0 14 2 19 5 13 2 -7 2 -19 0 -25z m-27 -373 c0 -5 -5 -3
-10 5 -5 8 -10 20 -10 25 0 6 5 3 10 -5 5 -8 10 -19 10 -25z m18 -40 c-3 -3
-9 2 -12 12 -6 14 -5 15 5 6 7 -7 10 -15 7 -18z m20 -40 c-3 -3 -9 2 -12 12
-6 14 -5 15 5 6 7 -7 10 -15 7 -18z m59 -147 c-3 -8 -6 -5 -6 6 -1 11 2 17 5
13 3 -3 4 -12 1 -19z m-17 -38 c-6 -11 -13 -20 -16 -20 -2 0 0 9 6 20 6 11 13
20 16 20 2 0 0 -9 -6 -20z m500 -771 c0 -5 -168 -9 -426 -9 -234 0 -424 4
-422 9 2 4 109 177 238 384 l234 376 188 -375 c104 -206 188 -379 188 -385z
m794 385 c3 -8 2 -12 -4 -9 -6 3 -10 10 -10 16 0 14 7 11 14 -7z m24 -59 c-3
-3 -9 2 -12 12 -6 14 -5 15 5 6 7 -7 10 -15 7 -18z m20 -40 c-3 -3 -9 2 -12
12 -6 14 -5 15 5 6 7 -7 10 -15 7 -18z m186 -371 c3 -8 2 -12 -4 -9 -6 3 -10
10 -10 16 0 14 7 11 14 -7z m-813 -36 c5 -11 6 -18 1 -18 -6 0 -12 8 -16 18
-3 9 -9 24 -12 32 -5 13 -4 13 6 0 6 -8 15 -23 21 -32z m-1717 -17 c3 -5 -5
-11 -19 -13 -20 -4 -23 -3 -14 8 13 16 25 18 33 5z m2587 -114 c-10 -9 -11 -8
-5 6 3 10 9 15 12 12 3 -3 0 -11 -7 -18z m-31 -57 c-6 -11 -13 -20 -16 -20 -2
0 0 9 6 20 6 11 13 20 16 20 2 0 0 -9 -6 -20z m-2947 -547 c-13 -2 -35 -2 -50
0 -16 2 -5 4 22 4 28 0 40 -2 28 -4z m93 -5 c3 -4 -1 -5 -10 -4 -8 1 -18 5
-22 8 -3 4 1 5 10 4 8 -1 18 -5 22 -8z m337 -5 c-13 -2 -33 -2 -45 0 -13 2 -3
4 22 4 25 0 35 -2 23 -4z m2077 -3 c10 -6 -44 -9 -160 -8 l-175 2 155 6 c85 3
157 7 160 8 3 1 12 -3 20 -8z m95 0 c-3 -5 -16 -10 -28 -9 -20 1 -20 2 3 9 14
4 26 8 28 9 2 1 0 -3 -3 -9z m-1038 -6 c-3 -3 -12 -4 -19 -1 -8 3 -5 6 6 6 11
1 17 -2 13 -5z m96 -1 c-7 -2 -19 -2 -25 0 -7 3 -2 5 12 5 14 0 19 -2 13 -5z
m105 0 c-10 -2 -28 -2 -40 0 -13 2 -5 4 17 4 22 1 32 -1 23 -4z m95 0 c-7 -2
-21 -2 -30 0 -10 3 -4 5 12 5 17 0 24 -2 18 -5z"/>
</g>
</svg>
