<svg id="svg" version="1.1" xmlns="http://www.w3.org/2000/svg" xmlns:xlink="http://www.w3.org/1999/xlink" width="400" height="400" viewBox="0, 0, 400,400"><g id="svgg"><path id="path0" d="M113.298 50.196 C 111.425 50.721,110.133 51.596,107.504 54.125 C 107.089 54.524,106.405 55.604,105.983 56.525 C 105.560 57.446,104.495 59.190,103.616 60.400 C 102.736 61.610,101.652 63.382,101.206 64.338 C 100.761 65.293,99.857 66.729,99.198 67.529 C 98.539 68.328,98.000 69.189,98.000 69.442 C 98.000 69.695,97.702 70.149,97.338 70.451 C 96.974 70.753,96.441 71.563,96.153 72.252 C 95.865 72.940,95.177 74.042,94.623 74.700 C 94.069 75.358,93.256 76.685,92.817 77.648 C 92.378 78.612,91.038 80.750,89.841 82.400 C 88.644 84.050,87.546 85.850,87.402 86.400 C 87.258 86.950,86.809 87.760,86.404 88.200 C 85.272 89.429,82.800 93.224,82.796 93.740 C 82.794 93.993,82.174 94.978,81.417 95.929 C 78.464 99.644,77.885 108.384,80.272 113.222 C 80.972 114.640,81.906 116.610,82.348 117.600 C 82.790 118.590,83.425 119.850,83.757 120.400 C 84.090 120.950,84.720 122.210,85.157 123.200 C 85.595 124.190,86.221 125.450,86.550 126.000 C 86.879 126.550,87.402 127.540,87.714 128.200 C 88.025 128.860,88.572 129.940,88.930 130.600 C 89.288 131.260,89.935 132.610,90.367 133.600 C 90.799 134.590,91.425 135.850,91.757 136.400 C 92.090 136.950,92.720 138.210,93.157 139.200 C 93.595 140.190,94.221 141.450,94.550 142.000 C 94.879 142.550,95.402 143.540,95.714 144.200 C 96.025 144.860,96.572 145.940,96.930 146.600 C 97.288 147.260,97.935 148.610,98.367 149.600 C 98.799 150.590,99.425 151.850,99.757 152.400 C 100.090 152.950,100.720 154.210,101.157 155.200 C 101.595 156.190,102.229 157.450,102.567 158.000 C 102.905 158.550,104.083 160.890,105.186 163.200 C 106.289 165.510,107.455 167.850,107.777 168.400 C 108.099 168.950,108.720 170.210,109.157 171.200 C 109.595 172.190,110.226 173.450,110.559 174.000 C 110.893 174.550,111.912 176.620,112.823 178.600 C 113.735 180.580,114.647 182.470,114.851 182.800 C 115.054 183.130,115.838 184.660,116.593 186.200 C 117.347 187.740,118.238 189.450,118.573 190.000 C 118.907 190.550,120.083 192.890,121.186 195.200 C 122.289 197.510,123.455 199.850,123.777 200.400 C 124.099 200.950,124.720 202.210,125.157 203.200 C 125.595 204.190,126.229 205.450,126.567 206.000 C 126.905 206.550,128.083 208.890,129.186 211.200 C 130.289 213.510,131.455 215.850,131.777 216.400 C 132.099 216.950,132.720 218.210,133.157 219.200 C 133.595 220.190,134.226 221.450,134.559 222.000 C 134.893 222.550,135.912 224.620,136.823 226.600 C 137.735 228.580,138.647 230.470,138.852 230.800 C 139.056 231.130,139.779 232.570,140.459 234.000 C 141.138 235.430,142.007 237.050,142.389 237.600 C 142.771 238.150,143.208 239.113,143.359 239.740 C 143.511 240.367,143.985 241.357,144.412 241.940 C 144.839 242.523,145.596 244.170,146.094 245.600 C 146.592 247.030,147.405 248.768,147.900 249.462 C 148.395 250.156,148.800 250.843,148.800 250.990 C 148.800 251.136,149.340 252.041,150.000 253.000 C 150.660 253.959,151.200 254.880,151.200 255.046 C 151.200 255.212,151.807 256.530,152.550 257.974 C 153.292 259.418,154.037 261.047,154.206 261.592 C 154.374 262.138,154.868 263.066,155.303 263.654 C 156.719 265.569,156.504 265.600,141.649 265.600 C 128.015 265.600,123.629 265.968,123.591 267.115 C 123.585 267.272,122.847 267.940,121.951 268.600 C 120.441 269.711,119.674 270.842,117.307 275.448 C 116.816 276.403,116.040 277.560,115.583 278.017 C 115.125 278.475,114.405 279.604,113.983 280.525 C 113.560 281.446,112.495 283.190,111.616 284.400 C 110.736 285.610,109.652 287.382,109.206 288.338 C 108.761 289.293,107.857 290.729,107.198 291.529 C 106.539 292.328,106.000 293.189,106.000 293.442 C 106.000 293.695,105.702 294.149,105.338 294.451 C 104.974 294.753,104.441 295.563,104.153 296.252 C 103.865 296.940,103.177 298.042,102.623 298.700 C 102.069 299.358,101.256 300.685,100.817 301.648 C 100.378 302.612,99.038 304.750,97.841 306.400 C 96.644 308.050,95.546 309.850,95.402 310.400 C 95.258 310.950,94.809 311.760,94.404 312.200 C 89.058 318.002,87.138 329.650,90.711 334.600 C 91.621 335.861,95.525 338.577,97.128 339.065 C 99.484 339.782,278.789 340.577,281.703 339.883 C 282.636 339.661,284.059 339.324,284.864 339.134 C 286.647 338.713,290.276 335.121,291.289 332.773 C 291.667 331.895,292.388 330.597,292.890 329.888 C 294.132 328.134,294.617 327.333,295.849 325.000 C 296.430 323.900,297.422 322.409,298.053 321.686 C 298.684 320.963,299.200 320.166,299.200 319.914 C 299.200 319.422,302.238 314.568,303.127 313.640 C 303.422 313.332,304.073 312.162,304.574 311.040 C 305.075 309.918,305.870 308.657,306.342 308.238 C 306.814 307.819,307.200 307.307,307.200 307.100 C 307.200 306.893,307.605 306.156,308.100 305.463 C 308.595 304.770,309.334 303.573,309.742 302.802 C 310.150 302.031,310.804 301.040,311.194 300.600 C 311.585 300.160,312.286 298.990,312.753 298.000 C 313.220 297.010,314.007 295.619,314.501 294.909 C 317.665 290.365,318.572 287.589,318.319 283.218 C 318.187 280.940,317.908 279.750,317.272 278.756 C 316.796 278.010,316.134 276.770,315.801 276.000 C 315.469 275.230,314.927 274.105,314.598 273.500 C 314.269 272.895,313.731 271.905,313.402 271.300 C 313.073 270.695,312.542 269.570,312.223 268.800 C 311.905 268.030,311.372 266.950,311.041 266.400 C 310.709 265.850,310.067 264.590,309.613 263.600 C 309.160 262.610,308.533 261.350,308.219 260.800 C 307.906 260.250,307.310 259.080,306.895 258.200 C 306.480 257.320,305.840 256.060,305.472 255.400 C 305.104 254.740,304.542 253.570,304.223 252.800 C 303.905 252.030,303.372 250.950,303.041 250.400 C 302.709 249.850,302.067 248.590,301.613 247.600 C 301.160 246.610,300.533 245.350,300.219 244.800 C 299.906 244.250,299.310 243.080,298.895 242.200 C 298.480 241.320,297.840 240.060,297.472 239.400 C 297.104 238.740,296.542 237.570,296.223 236.800 C 295.905 236.030,295.372 234.950,295.041 234.400 C 294.709 233.850,294.067 232.590,293.613 231.600 C 293.160 230.610,292.533 229.350,292.219 228.800 C 291.906 228.250,291.310 227.080,290.895 226.200 C 290.480 225.320,289.840 224.060,289.472 223.400 C 289.104 222.740,288.542 221.570,288.223 220.800 C 287.905 220.030,287.372 218.950,287.041 218.400 C 286.709 217.850,286.067 216.590,285.613 215.600 C 285.160 214.610,284.533 213.350,284.219 212.800 C 283.906 212.250,283.310 211.080,282.895 210.200 C 282.480 209.320,281.840 208.060,281.472 207.400 C 281.104 206.740,280.542 205.570,280.223 204.800 C 279.905 204.030,279.372 202.950,279.041 202.400 C 278.709 201.850,278.067 200.590,277.613 199.600 C 277.160 198.610,276.533 197.350,276.219 196.800 C 275.906 196.250,275.310 195.080,274.895 194.200 C 274.480 193.320,273.840 192.060,273.472 191.400 C 273.104 190.740,272.542 189.570,272.223 188.800 C 271.905 188.030,271.372 186.950,271.041 186.400 C 270.709 185.850,270.067 184.590,269.613 183.600 C 269.160 182.610,268.533 181.350,268.219 180.800 C 267.906 180.250,267.310 179.080,266.895 178.200 C 266.480 177.320,265.840 176.060,265.472 175.400 C 265.104 174.740,264.542 173.570,264.223 172.800 C 263.905 172.030,263.372 170.950,263.041 170.400 C 262.709 169.850,262.067 168.590,261.613 167.600 C 261.160 166.610,260.533 165.350,260.219 164.800 C 259.906 164.250,259.310 163.080,258.895 162.200 C 258.480 161.320,257.840 160.060,257.472 159.400 C 257.104 158.740,256.542 157.570,256.223 156.800 C 255.905 156.030,255.372 154.950,255.041 154.400 C 254.709 153.850,254.067 152.590,253.613 151.600 C 253.160 150.610,252.533 149.350,252.219 148.800 C 251.906 148.250,251.310 147.080,250.895 146.200 C 250.480 145.320,249.840 144.060,249.472 143.400 C 249.104 142.740,248.542 141.570,248.223 140.800 C 247.905 140.030,247.380 138.950,247.059 138.400 C 246.069 136.707,243.200 130.623,243.193 130.200 C 243.189 129.980,242.649 129.008,241.993 128.040 C 240.638 126.041,240.422 124.425,241.500 124.354 C 241.885 124.328,247.510 124.341,254.000 124.382 C 270.487 124.487,271.561 124.183,275.827 118.200 C 277.239 116.220,278.681 114.240,279.032 113.800 C 279.383 113.360,280.106 112.100,280.639 111.000 C 281.171 109.900,282.324 108.010,283.199 106.800 C 284.074 105.590,285.152 103.846,285.594 102.924 C 286.036 102.003,286.599 101.124,286.844 100.973 C 287.090 100.821,287.622 99.955,288.027 99.048 C 288.432 98.142,289.669 96.140,290.775 94.600 C 291.882 93.060,293.214 90.900,293.736 89.800 C 294.258 88.700,295.070 87.457,295.542 87.038 C 296.014 86.619,296.400 86.079,296.400 85.838 C 296.401 85.597,296.851 84.877,297.400 84.238 C 297.950 83.599,298.400 82.907,298.400 82.700 C 298.400 82.493,299.210 81.117,300.200 79.642 C 301.190 78.166,302.000 76.829,302.000 76.670 C 302.000 76.511,302.630 75.465,303.400 74.345 C 304.170 73.226,304.800 72.117,304.800 71.881 C 304.800 71.645,305.136 71.080,305.546 70.626 C 310.790 64.821,306.054 52.579,297.745 50.461 C 294.922 49.742,115.839 49.484,113.298 50.196 M291.954 61.052 C 295.301 61.392,296.624 63.107,295.605 65.786 C 295.388 66.357,291.367 72.984,286.670 80.512 C 281.973 88.040,275.916 97.751,273.210 102.092 C 265.110 115.087,267.931 113.916,245.600 113.556 C 216.333 113.085,155.368 112.671,154.311 112.936 C 152.271 113.448,153.154 116.233,158.198 125.200 C 159.126 126.850,160.116 128.920,160.398 129.800 C 160.680 130.680,161.259 131.897,161.685 132.503 C 163.702 135.378,202.400 213.371,202.393 214.548 C 202.384 216.101,200.657 219.212,194.437 228.876 C 193.207 230.788,191.480 233.535,190.600 234.980 C 189.720 236.426,188.041 239.092,186.869 240.904 C 185.698 242.717,184.457 244.740,184.112 245.400 C 183.767 246.060,182.547 248.040,181.400 249.800 C 180.254 251.560,178.975 253.571,178.558 254.270 C 172.526 264.372,170.674 266.342,168.574 264.894 C 167.707 264.296,165.522 260.713,164.911 258.885 C 164.564 257.848,163.975 256.550,163.602 256.000 C 162.195 253.923,90.056 108.923,89.623 107.300 C 88.829 104.324,89.113 103.717,97.883 89.699 C 100.257 85.903,103.730 80.341,105.600 77.338 C 116.494 59.844,115.044 61.413,120.829 60.870 C 124.797 60.498,288.209 60.672,291.954 61.052 M210.800 124.181 C 210.800 124.823,209.526 127.040,207.572 129.800 C 206.326 131.560,205.180 133.406,205.025 133.902 C 204.871 134.398,204.328 135.300,203.818 135.905 C 202.766 137.156,201.736 138.824,200.053 142.000 C 199.412 143.210,198.518 144.534,198.066 144.941 C 197.615 145.349,197.133 146.195,196.995 146.821 C 196.858 147.447,196.216 148.625,195.568 149.441 C 194.920 150.256,193.481 152.470,192.369 154.361 C 188.287 161.307,188.020 161.529,187.035 158.788 C 186.634 157.675,186.062 156.519,185.762 156.219 C 185.463 155.920,184.846 154.732,184.391 153.578 C 183.937 152.425,183.213 151.034,182.783 150.487 C 182.352 149.940,182.000 149.319,182.000 149.108 C 182.000 148.896,181.615 148.183,181.145 147.523 C 180.675 146.863,179.782 144.960,179.161 143.294 C 178.539 141.629,177.858 140.160,177.648 140.029 C 177.437 139.899,176.882 138.823,176.415 137.637 C 175.947 136.452,175.213 135.034,174.783 134.487 C 174.352 133.940,174.000 133.324,174.000 133.118 C 174.000 132.912,173.496 131.992,172.881 131.072 C 172.266 130.152,171.443 128.410,171.053 127.200 C 170.664 125.990,170.252 124.775,170.139 124.500 C 169.976 124.104,174.177 124.000,190.367 124.000 C 201.605 124.000,210.800 124.082,210.800 124.181 M227.411 125.379 C 228.606 125.878,229.028 126.469,230.485 129.679 C 231.414 131.725,232.788 134.570,233.539 136.000 C 235.139 139.051,256.150 181.079,285.743 240.429 C 304.090 277.224,306.800 282.888,306.800 284.442 C 306.800 286.284,306.107 287.589,299.605 298.000 C 298.437 299.870,296.416 303.110,295.113 305.200 C 293.810 307.290,291.389 311.160,289.733 313.800 C 288.076 316.440,285.556 320.528,284.131 322.885 C 280.947 328.155,280.236 328.655,275.157 329.192 C 271.988 329.528,189.087 329.270,113.941 328.691 C 97.165 328.562,97.264 328.736,105.998 314.732 C 108.925 310.040,112.664 304.040,114.306 301.400 C 115.949 298.760,117.696 295.970,118.189 295.200 C 118.682 294.430,120.255 291.910,121.686 289.600 C 129.096 277.631,128.895 277.910,130.592 277.208 C 132.080 276.591,136.241 276.569,186.400 276.909 C 226.211 277.179,240.906 277.158,241.751 276.829 C 243.180 276.273,243.060 274.630,241.398 271.997 C 240.812 271.068,240.071 269.567,239.751 268.661 C 239.431 267.755,238.876 266.565,238.517 266.018 C 234.889 260.481,194.000 177.257,194.000 175.409 C 194.000 173.243,194.061 173.120,199.561 164.288 C 200.352 163.017,201.540 161.090,202.200 160.007 C 202.860 158.923,204.497 156.274,205.838 154.118 C 207.179 151.963,209.215 148.685,210.362 146.833 C 211.508 144.981,213.034 142.551,213.753 141.433 C 215.270 139.073,217.485 135.515,220.235 131.023 C 223.685 125.384,224.983 124.364,227.411 125.379 M208.363 231.142 C 209.048 232.210,209.894 233.920,210.242 234.942 C 210.590 235.964,211.025 236.800,211.209 236.800 C 211.392 236.800,211.922 237.816,212.387 239.057 C 212.851 240.298,213.574 241.749,213.993 242.282 C 214.412 242.814,214.971 243.914,215.237 244.725 C 215.502 245.536,216.141 246.825,216.657 247.589 C 217.173 248.353,217.881 249.838,218.230 250.889 C 218.579 251.940,219.017 252.800,219.203 252.800 C 219.390 252.800,219.922 253.816,220.387 255.057 C 220.851 256.298,221.574 257.749,221.993 258.282 C 222.412 258.814,222.967 259.914,223.227 260.725 C 223.486 261.536,224.137 262.786,224.672 263.502 C 226.265 265.636,226.602 265.600,204.976 265.600 C 182.740 265.600,183.186 265.655,185.779 263.219 C 186.318 262.714,186.870 261.791,187.006 261.171 C 187.143 260.550,187.784 259.375,188.432 258.559 C 189.080 257.744,190.515 255.530,191.622 253.639 C 192.729 251.747,194.268 249.330,195.043 248.268 C 195.818 247.205,196.917 245.495,197.486 244.468 C 198.055 243.440,198.943 242.091,199.460 241.469 C 199.977 240.847,200.400 240.083,200.400 239.770 C 200.400 239.458,201.008 238.346,201.751 237.301 C 202.493 236.255,203.396 234.860,203.756 234.200 C 204.901 232.099,206.774 229.200,206.986 229.200 C 207.058 229.200,207.677 230.074,208.363 231.142 " stroke="none" fill="#0a0a0a" fill-rule="evenodd"></path><path id="path1" d="M130.000 63.041 C 127.628 63.476,127.200 63.644,127.200 64.146 C 127.200 65.340,130.534 66.948,137.400 69.064 C 138.500 69.403,140.380 70.054,141.578 70.511 C 142.775 70.967,145.115 71.751,146.778 72.253 C 151.420 73.655,155.972 75.197,158.405 76.192 C 159.618 76.689,161.238 77.217,162.005 77.367 C 162.772 77.516,164.840 78.154,166.600 78.783 C 170.330 80.117,173.804 81.279,178.000 82.595 C 179.650 83.112,181.720 83.845,182.600 84.224 C 183.480 84.602,185.370 85.234,186.800 85.628 C 188.230 86.022,191.740 87.176,194.600 88.191 C 197.460 89.207,200.880 90.367,202.200 90.769 C 203.520 91.171,205.320 91.807,206.200 92.182 C 207.080 92.557,209.150 93.285,210.800 93.800 C 212.450 94.314,215.600 95.385,217.800 96.179 C 223.841 98.359,230.647 100.706,234.000 101.766 C 237.358 102.826,241.109 104.085,244.400 105.255 C 252.071 107.982,260.688 110.386,262.825 110.394 C 265.162 110.404,263.586 112.641,281.772 83.477 C 293.049 65.393,293.440 64.582,291.169 63.980 C 290.602 63.829,266.752 63.592,238.169 63.452 C 209.586 63.312,173.780 63.121,158.600 63.027 C 143.420 62.934,130.550 62.940,130.000 63.041 M115.008 67.886 C 113.900 69.120,96.916 95.886,92.959 102.635 C 91.554 105.030,91.734 106.289,94.223 111.465 C 100.044 123.575,160.685 244.538,162.140 246.944 C 163.053 248.453,164.456 250.433,165.259 251.344 C 166.061 252.255,167.302 254.080,168.016 255.400 C 169.779 258.656,169.994 258.903,170.620 258.383 C 171.263 257.850,174.634 252.545,185.990 234.200 C 188.033 230.900,190.616 226.760,191.731 225.000 C 196.394 217.638,197.600 215.489,197.600 214.543 C 197.600 213.813,172.863 163.534,169.668 157.771 C 169.433 157.347,168.534 155.560,167.669 153.800 C 163.250 144.800,149.482 117.752,148.858 116.845 C 148.464 116.270,147.487 114.450,146.687 112.800 C 145.887 111.150,144.418 108.540,143.422 107.000 C 142.426 105.460,141.120 103.390,140.518 102.400 C 139.534 100.780,134.918 93.700,125.364 79.156 C 123.542 76.382,121.185 72.422,120.125 70.356 C 117.814 65.848,117.133 65.519,115.008 67.886 M223.488 134.273 C 221.947 136.689,218.699 141.899,209.696 156.400 C 207.341 160.193,204.564 164.599,200.996 170.202 C 198.803 173.648,198.307 174.836,198.553 176.063 C 198.736 176.981,204.524 188.994,206.352 192.250 C 206.583 192.662,208.395 196.281,210.377 200.290 C 212.359 204.300,214.159 207.900,214.377 208.290 C 214.595 208.681,216.288 212.060,218.139 215.800 C 221.681 222.955,244.831 268.831,248.013 275.000 C 250.469 279.763,254.528 286.299,262.849 298.893 C 271.934 312.641,274.044 316.003,275.287 318.711 C 277.427 323.372,279.058 324.304,281.140 322.054 C 282.121 320.992,301.672 290.009,303.344 286.864 C 304.756 284.210,305.355 285.509,270.528 215.800 C 233.650 141.985,234.351 143.352,231.234 139.284 C 230.005 137.680,228.448 135.340,227.772 134.084 C 226.095 130.965,225.586 130.987,223.488 134.273 M130.575 280.861 C 129.902 281.598,127.450 285.260,125.128 289.000 C 122.806 292.740,117.279 301.619,112.847 308.732 C 102.447 325.419,102.544 325.218,104.554 325.983 C 106.096 326.569,265.238 327.222,268.126 326.654 C 270.718 326.144,268.164 324.017,263.200 322.550 C 261.990 322.192,260.522 321.656,259.937 321.359 C 259.353 321.062,257.373 320.364,255.537 319.809 C 251.706 318.650,247.200 317.175,242.600 315.575 C 238.041 313.989,234.648 312.864,231.200 311.795 C 227.025 310.501,222.272 308.896,219.200 307.743 C 217.770 307.206,215.700 306.508,214.600 306.192 C 211.198 305.212,205.089 303.153,203.200 302.349 C 202.210 301.927,200.230 301.237,198.800 300.814 C 197.370 300.392,194.130 299.306,191.600 298.402 C 189.070 297.499,185.650 296.328,184.000 295.801 C 182.350 295.274,179.290 294.219,177.200 293.457 C 175.110 292.694,172.230 291.678,170.800 291.198 C 169.370 290.718,166.850 289.851,165.200 289.273 C 163.550 288.694,160.940 287.825,159.400 287.343 C 155.334 286.069,151.761 284.883,148.800 283.825 C 136.710 279.506,132.449 278.813,130.575 280.861 " stroke="none" fill="#e4e4e4" fill-rule="evenodd"></path><path id="path2" d="M122.400 62.825 C 120.750 63.244,118.983 63.590,118.474 63.593 C 116.147 63.610,115.677 64.235,104.625 82.000 C 100.040 89.370,95.262 97.023,94.006 99.007 C 91.378 103.160,90.648 105.049,91.048 106.660 C 91.405 108.097,159.373 244.593,162.026 249.200 C 163.103 251.070,165.022 254.654,166.292 257.164 C 170.010 264.515,169.944 264.541,177.109 252.865 C 178.369 250.811,179.871 248.381,180.446 247.465 C 182.117 244.807,184.366 241.196,187.768 235.709 C 189.511 232.899,192.910 227.478,195.322 223.662 C 198.664 218.374,199.753 216.316,199.900 215.009 C 200.092 213.303,188.447 189.482,160.395 134.200 C 157.493 128.480,154.774 123.080,154.355 122.200 C 153.935 121.320,153.226 119.970,152.780 119.200 C 149.999 114.400,149.579 112.534,150.930 110.965 L 151.933 109.800 199.866 109.863 C 241.561 109.918,248.503 110.011,253.200 110.582 C 265.707 112.101,264.817 112.365,268.900 105.910 C 289.773 72.910,294.281 65.273,293.620 64.038 C 292.885 62.664,291.939 62.632,244.200 62.365 C 152.319 61.850,125.850 61.950,122.400 62.825 M238.169 63.452 C 266.752 63.592,290.602 63.829,291.169 63.980 C 293.440 64.582,293.049 65.393,281.772 83.477 C 263.586 112.641,265.162 110.404,262.825 110.394 C 260.688 110.386,252.071 107.982,244.400 105.255 C 241.109 104.085,237.358 102.826,234.000 101.766 C 230.647 100.706,223.841 98.359,217.800 96.179 C 215.600 95.385,212.450 94.314,210.800 93.800 C 209.150 93.285,207.080 92.557,206.200 92.182 C 205.320 91.807,203.520 91.171,202.200 90.769 C 200.880 90.367,197.460 89.207,194.600 88.191 C 191.740 87.176,188.230 86.022,186.800 85.628 C 185.370 85.234,183.480 84.602,182.600 84.224 C 181.720 83.845,179.650 83.112,178.000 82.595 C 173.804 81.279,170.330 80.117,166.600 78.783 C 164.840 78.154,162.772 77.516,162.005 77.367 C 161.238 77.217,159.618 76.689,158.405 76.192 C 155.972 75.197,151.420 73.655,146.778 72.253 C 145.115 71.751,142.775 70.967,141.578 70.511 C 140.380 70.054,138.500 69.403,137.400 69.064 C 130.534 66.948,127.200 65.340,127.200 64.146 C 127.200 63.644,127.628 63.476,130.000 63.041 C 130.550 62.940,143.420 62.934,158.600 63.027 C 173.780 63.121,209.586 63.312,238.169 63.452 M120.125 70.356 C 121.185 72.422,123.542 76.382,125.364 79.156 C 134.918 93.700,139.534 100.780,140.518 102.400 C 141.120 103.390,142.426 105.460,143.422 107.000 C 144.418 108.540,145.887 111.150,146.687 112.800 C 147.487 114.450,148.464 116.270,148.858 116.845 C 149.482 117.752,163.250 144.800,167.669 153.800 C 168.534 155.560,169.433 157.347,169.668 157.771 C 172.863 163.534,197.600 213.813,197.600 214.543 C 197.600 215.489,196.394 217.638,191.731 225.000 C 190.616 226.760,188.033 230.900,185.990 234.200 C 174.634 252.545,171.263 257.850,170.620 258.383 C 169.994 258.903,169.779 258.656,168.016 255.400 C 167.302 254.080,166.061 252.255,165.259 251.344 C 162.609 248.336,160.736 244.711,128.463 180.144 C 91.181 105.557,92.000 107.232,92.000 105.556 C 92.000 104.012,91.523 104.836,103.770 85.214 C 117.253 63.613,116.854 63.975,120.125 70.356 M224.512 128.500 C 224.057 128.995,221.443 133.000,218.703 137.400 C 215.963 141.800,210.699 150.260,207.005 156.200 C 203.311 162.140,199.715 167.900,199.014 169.000 C 196.370 173.152,196.000 173.934,196.000 175.373 C 196.000 176.748,239.225 264.072,244.062 272.470 C 247.519 278.471,246.229 280.548,238.936 280.724 C 225.220 281.055,145.730 279.990,142.400 279.431 C 131.855 277.662,130.902 277.907,127.552 283.252 C 100.361 326.636,100.943 325.592,103.274 326.839 C 104.826 327.670,268.296 328.180,272.158 327.366 C 273.941 326.990,276.284 326.557,277.364 326.405 C 280.108 326.017,280.509 325.502,290.160 310.000 C 294.748 302.630,299.554 294.942,300.839 292.916 C 304.575 287.025,305.334 285.382,305.070 283.754 C 304.809 282.148,235.280 142.522,232.591 138.205 C 231.630 136.662,230.189 133.960,229.389 132.200 C 227.215 127.417,226.209 126.654,224.512 128.500 M227.772 134.084 C 228.448 135.340,230.005 137.680,231.234 139.284 C 234.351 143.352,233.650 141.985,270.528 215.800 C 305.355 285.509,304.756 284.210,303.344 286.864 C 301.672 290.009,282.121 320.992,281.140 322.054 C 279.058 324.304,277.427 323.372,275.287 318.711 C 274.044 316.003,271.934 312.641,262.849 298.893 C 254.528 286.299,250.469 279.763,248.013 275.000 C 244.831 268.831,221.681 222.955,218.139 215.800 C 216.288 212.060,214.595 208.681,214.377 208.290 C 214.159 207.900,212.359 204.300,210.377 200.290 C 208.395 196.281,206.583 192.662,206.352 192.250 C 204.524 188.994,198.736 176.981,198.553 176.063 C 198.307 174.836,198.803 173.648,200.996 170.202 C 204.564 164.599,207.341 160.193,209.696 156.400 C 225.828 130.416,225.104 131.523,225.887 131.674 C 226.249 131.743,227.097 132.828,227.772 134.084 M141.400 281.397 C 144.040 282.222,147.370 283.314,148.800 283.825 C 151.761 284.883,155.334 286.069,159.400 287.343 C 160.940 287.825,163.550 288.694,165.200 289.273 C 166.850 289.851,169.370 290.718,170.800 291.198 C 172.230 291.678,175.110 292.694,177.200 293.457 C 179.290 294.219,182.350 295.274,184.000 295.801 C 185.650 296.328,189.070 297.499,191.600 298.402 C 194.130 299.306,197.370 300.392,198.800 300.814 C 200.230 301.237,202.210 301.927,203.200 302.349 C 205.089 303.153,211.198 305.212,214.600 306.192 C 215.700 306.508,217.770 307.206,219.200 307.743 C 222.272 308.896,227.025 310.501,231.200 311.795 C 234.648 312.864,238.041 313.989,242.600 315.575 C 247.200 317.175,251.706 318.650,255.537 319.809 C 257.373 320.364,259.353 321.062,259.937 321.359 C 260.522 321.656,261.990 322.192,263.200 322.550 C 268.164 324.017,270.718 326.144,268.126 326.654 C 265.238 327.222,106.096 326.569,104.554 325.983 C 102.544 325.218,102.447 325.419,112.847 308.732 C 117.279 301.619,122.806 292.740,125.128 289.000 C 131.820 278.223,131.587 278.332,141.400 281.397 " stroke="none" fill="#949494" fill-rule="evenodd"></path><path id="path3" d="M120.611 62.409 C 115.346 63.356,117.275 60.890,99.806 89.000 C 96.115 94.940,92.544 100.680,91.870 101.755 C 89.480 105.572,88.044 102.148,113.167 152.530 C 125.545 177.352,135.737 197.596,135.817 197.517 C 135.896 197.437,125.919 177.219,113.645 152.586 C 101.372 127.954,91.203 107.287,91.047 106.660 C 90.648 105.049,91.379 103.158,94.006 99.007 C 95.262 97.023,100.040 89.370,104.625 82.000 C 115.691 64.211,116.152 63.600,118.487 63.600 C 119.003 63.600,120.410 63.295,121.613 62.923 C 123.584 62.313,127.791 62.224,164.200 62.017 L 204.600 61.787 164.600 61.739 C 127.758 61.696,124.285 61.749,120.611 62.409 M250.000 62.386 C 291.756 62.600,292.873 62.642,293.620 64.038 C 294.281 65.273,289.773 72.910,268.900 105.910 C 264.817 112.365,265.707 112.101,253.200 110.582 C 248.503 110.011,241.561 109.918,199.866 109.863 L 151.933 109.800 150.930 110.965 C 149.579 112.534,149.999 114.400,152.780 119.200 C 153.226 119.970,153.935 121.320,154.355 122.200 C 154.774 123.080,157.493 128.480,160.395 134.200 C 188.447 189.482,200.092 213.303,199.900 215.009 C 199.753 216.316,198.664 218.374,195.322 223.662 C 192.910 227.478,189.511 232.899,187.768 235.709 C 184.366 241.196,182.117 244.807,180.446 247.465 C 179.871 248.381,178.369 250.811,177.109 252.865 C 169.944 264.541,170.010 264.515,166.292 257.164 C 165.022 254.654,163.105 251.070,162.032 249.200 C 160.958 247.330,154.717 235.051,148.161 221.912 C 141.605 208.774,136.179 198.088,136.102 198.165 C 135.770 198.497,167.515 261.201,168.649 262.454 C 170.174 264.139,171.304 263.176,175.274 256.800 C 176.713 254.490,179.522 249.990,181.517 246.800 C 183.512 243.610,186.532 238.750,188.227 236.000 C 190.907 231.653,193.328 227.780,198.602 219.400 C 200.378 216.578,200.936 214.999,200.615 213.708 C 200.358 212.671,177.182 166.150,162.203 136.600 C 158.522 129.340,155.168 122.680,154.750 121.800 C 154.331 120.920,153.689 119.660,153.324 119.000 C 150.765 114.379,150.486 113.276,151.541 111.975 L 152.332 111.000 200.866 111.112 C 231.437 111.182,251.695 111.389,255.600 111.670 C 266.306 112.440,264.721 113.361,271.548 102.400 C 273.398 99.430,276.712 94.120,278.913 90.600 C 281.115 87.080,284.085 82.310,285.515 80.000 C 286.945 77.690,288.518 75.170,289.011 74.400 C 293.603 67.227,294.536 65.396,294.227 64.165 C 293.718 62.138,295.113 62.201,250.200 62.186 L 208.200 62.172 250.000 62.386 M224.384 127.700 C 223.918 128.195,222.535 130.220,221.310 132.200 C 217.987 137.572,200.042 166.385,199.014 168.000 C 195.699 173.208,195.400 173.821,195.419 175.391 C 195.437 176.910,233.089 252.976,244.704 274.956 C 245.571 276.598,244.977 278.062,243.191 278.686 C 241.431 279.300,153.011 279.006,140.157 278.343 C 132.385 277.942,131.629 277.962,130.657 278.599 C 129.003 279.683,101.600 323.719,101.600 325.294 C 101.600 327.528,102.117 327.607,116.100 327.511 L 129.000 327.422 116.067 327.211 C 100.441 326.956,100.643 327.040,103.505 322.000 C 104.334 320.539,119.680 295.813,127.552 283.252 C 130.902 277.907,131.855 277.662,142.400 279.431 C 145.730 279.990,225.220 281.055,238.936 280.724 C 246.229 280.548,247.519 278.471,244.062 272.470 C 239.225 264.072,196.000 176.748,196.000 175.373 C 196.000 173.934,196.370 173.152,199.014 169.000 C 199.715 167.900,203.311 162.140,207.005 156.200 C 228.185 122.143,225.921 124.570,229.389 132.200 C 230.189 133.960,231.630 136.662,232.591 138.205 C 235.280 142.522,304.809 282.148,305.070 283.754 C 305.334 285.382,304.575 287.025,300.839 292.916 C 299.554 294.942,294.754 302.630,290.173 310.000 C 281.163 324.497,279.701 326.397,277.547 326.405 C 276.806 326.407,275.210 326.710,274.000 327.077 C 272.140 327.642,268.957 327.783,253.400 327.988 L 235.000 328.230 252.000 328.307 C 262.422 328.354,270.083 328.219,271.800 327.958 C 273.340 327.724,275.633 327.401,276.896 327.240 C 280.323 326.804,280.574 326.445,303.380 289.485 C 306.776 283.981,310.670 293.017,269.326 210.466 C 225.327 122.612,227.855 127.607,227.165 127.170 C 226.222 126.573,225.275 126.753,224.384 127.700 M162.730 327.900 C 173.802 327.959,191.802 327.959,202.730 327.900 C 213.659 327.841,204.600 327.792,182.600 327.792 C 160.600 327.792,151.659 327.841,162.730 327.900 " stroke="none" fill="#848484" fill-rule="evenodd"></path><path id="path4" d="M120.829 60.870 C 115.044 61.413,116.494 59.844,105.600 77.338 C 103.730 80.341,100.257 85.903,97.883 89.699 C 89.113 103.717,88.829 104.324,89.623 107.300 C 90.056 108.923,162.195 253.923,163.602 256.000 C 163.975 256.550,164.564 257.848,164.911 258.885 C 168.067 268.322,170.698 267.432,178.558 254.270 C 178.975 253.571,180.254 251.560,181.400 249.800 C 182.547 248.040,183.767 246.060,184.112 245.400 C 184.457 244.740,185.698 242.717,186.869 240.904 C 188.041 239.092,189.720 236.426,190.600 234.980 C 191.480 233.535,193.207 230.788,194.437 228.876 C 200.657 219.212,202.384 216.101,202.393 214.548 C 202.400 213.371,163.702 135.378,161.685 132.503 C 161.259 131.897,160.680 130.680,160.398 129.800 C 160.116 128.920,159.126 126.850,158.198 125.200 C 153.154 116.233,152.271 113.448,154.311 112.936 C 155.368 112.671,216.333 113.085,245.600 113.556 C 267.931 113.916,265.110 115.087,273.210 102.092 C 275.916 97.751,281.973 88.040,286.670 80.512 C 291.367 72.984,295.388 66.357,295.605 65.786 C 296.624 63.107,295.301 61.392,291.954 61.052 C 288.209 60.672,124.797 60.498,120.829 60.870 M242.400 61.952 C 281.742 62.148,292.388 62.307,293.095 62.712 C 295.283 63.961,294.789 65.375,289.011 74.400 C 288.518 75.170,286.945 77.690,285.515 80.000 C 284.085 82.310,281.115 87.080,278.913 90.600 C 276.712 94.120,273.398 99.430,271.548 102.400 C 264.721 113.361,266.306 112.440,255.600 111.670 C 251.695 111.389,231.437 111.182,200.866 111.112 L 152.332 111.000 151.541 111.975 C 150.486 113.276,150.765 114.379,153.324 119.000 C 153.689 119.660,154.331 120.920,154.750 121.800 C 155.168 122.680,158.522 129.340,162.203 136.600 C 177.182 166.150,200.358 212.671,200.615 213.708 C 200.936 214.999,200.378 216.578,198.602 219.400 C 193.328 227.780,190.907 231.653,188.227 236.000 C 186.532 238.750,183.512 243.610,181.517 246.800 C 179.522 249.990,176.713 254.490,175.274 256.800 C 171.304 263.176,170.174 264.139,168.649 262.454 C 167.560 261.250,163.453 253.133,126.124 178.400 C 86.619 99.310,89.444 105.630,91.870 101.755 C 92.544 100.680,96.115 94.940,99.806 89.000 C 110.817 71.283,114.535 65.462,115.606 64.263 C 118.132 61.436,122.513 61.356,242.400 61.952 M223.628 126.323 C 222.831 127.160,221.304 129.275,220.235 131.023 C 217.485 135.515,215.270 139.073,213.753 141.433 C 213.034 142.551,211.508 144.981,210.362 146.833 C 209.215 148.685,207.179 151.963,205.838 154.118 C 204.497 156.274,202.860 158.923,202.200 160.007 C 201.540 161.090,200.352 163.017,199.561 164.288 C 194.061 173.120,194.000 173.243,194.000 175.409 C 194.000 177.257,234.889 260.481,238.517 266.018 C 238.876 266.565,239.431 267.755,239.751 268.661 C 240.071 269.567,240.812 271.068,241.398 271.997 C 243.060 274.630,243.180 276.273,241.751 276.829 C 240.906 277.158,226.211 277.179,186.400 276.909 C 136.241 276.569,132.080 276.591,130.592 277.208 C 128.895 277.910,129.096 277.631,121.686 289.600 C 120.255 291.910,118.682 294.430,118.189 295.200 C 117.696 295.970,115.949 298.760,114.306 301.400 C 112.664 304.040,108.925 310.040,105.998 314.732 C 97.264 328.736,97.165 328.562,113.941 328.691 C 189.087 329.270,271.988 329.528,275.157 329.192 C 280.236 328.655,280.947 328.155,284.131 322.885 C 285.556 320.528,288.076 316.440,289.733 313.800 C 291.389 311.160,293.810 307.290,295.113 305.200 C 296.416 303.110,298.437 299.870,299.605 298.000 C 306.107 287.589,306.800 286.284,306.800 284.442 C 306.800 282.888,304.090 277.224,285.743 240.429 C 256.150 181.079,235.139 139.051,233.539 136.000 C 232.788 134.570,231.414 131.725,230.485 129.679 C 229.028 126.469,228.606 125.878,227.411 125.379 C 225.461 124.564,225.251 124.616,223.628 126.323 M227.165 127.170 C 227.855 127.607,225.327 122.612,269.326 210.466 C 310.670 293.017,306.776 283.981,303.380 289.485 C 280.574 326.446,280.323 326.804,276.896 327.240 C 275.633 327.400,273.294 327.727,271.698 327.965 C 267.873 328.535,103.864 327.770,102.755 327.176 C 101.567 326.540,101.412 325.007,102.353 323.201 C 104.826 318.457,129.737 279.202,130.657 278.599 C 131.629 277.962,132.385 277.942,140.157 278.343 C 153.011 279.006,241.431 279.300,243.191 278.686 C 244.977 278.062,245.571 276.598,244.704 274.956 C 233.089 252.976,195.437 176.910,195.419 175.391 C 195.400 173.821,195.699 173.208,199.014 168.000 C 200.042 166.385,217.987 137.572,221.310 132.200 C 224.550 126.963,225.521 126.129,227.165 127.170 " stroke="none" fill="#6c6c6c" fill-rule="evenodd"></path></g></svg>