<?xml version="1.0" standalone="no"?>
<!DOCTYPE svg PUBLIC "-//W3C//DTD SVG 20010904//EN"
 "http://www.w3.org/TR/2001/REC-SVG-20010904/DTD/svg10.dtd">
<svg version="1.0" xmlns="http://www.w3.org/2000/svg"
 width="700.000000pt" height="700.000000pt" viewBox="0 0 700.000000 700.000000"
 preserveAspectRatio="xMidYMid meet">
<metadata>
Created by potrace 1.14, written by Peter Selinger 2001-2017
</metadata>
<g transform="translate(0.000000,700.000000) scale(0.100000,-0.100000)"
fill="#000000" stroke="none">
<path d="M2657 5924 c-1 -1 -27 -5 -57 -8 -55 -7 -66 -9 -195 -45 -124 -34
-266 -96 -330 -145 -18 -14 -37 -26 -41 -26 -29 0 -259 -223 -289 -280 -8 -16
-19 -30 -24 -30 -26 0 -186 -307 -216 -415 -9 -33 -22 -73 -30 -90 -7 -16 -25
-75 -39 -130 -14 -55 -34 -126 -45 -157 -11 -32 -18 -58 -17 -58 2 0 -10 -51
-26 -112 -84 -317 -108 -408 -124 -463 -9 -33 -17 -96 -18 -141 -1 -71 2 -87
30 -140 36 -68 114 -138 171 -153 41 -11 86 -17 173 -26 30 -3 66 -8 80 -10
14 -3 36 -8 50 -10 14 -3 52 -7 85 -10 33 -3 83 -7 110 -10 324 -32 480 -35
552 -11 102 34 168 88 268 221 51 68 218 242 286 298 50 41 107 79 174 117 33
18 62 36 65 39 9 11 225 110 273 126 27 8 61 22 77 30 15 8 86 28 156 45 71
18 138 36 149 41 26 12 38 14 255 44 102 14 209 31 239 37 34 8 173 12 385 12
269 0 347 -3 416 -17 47 -9 128 -21 180 -27 158 -19 253 -35 380 -65 94 -22
254 -27 312 -9 55 17 159 113 184 171 22 52 117 393 127 461 3 18 10 38 15 45
6 7 20 53 31 102 12 50 37 147 56 216 46 165 46 161 50 256 7 137 -22 203
-125 278 -43 31 -57 36 -127 41 -70 5 -3620 13 -3626 8z m3591 -244 c54 -51
68 -100 48 -164 -20 -60 -94 -336 -122 -451 -13 -55 -28 -113 -33 -130 -6 -16
-24 -81 -41 -143 -38 -144 -49 -162 -107 -202 -56 -37 -72 -37 -253 3 -63 13
-140 27 -170 31 -97 12 -134 18 -165 26 -16 5 -57 11 -90 14 -33 4 -94 9 -135
13 -98 10 -617 9 -790 0 -178 -10 -216 -14 -340 -42 -58 -13 -121 -26 -140
-29 -36 -6 -69 -13 -105 -21 -11 -2 -51 -13 -90 -25 -38 -12 -101 -31 -140
-42 -161 -47 -553 -233 -578 -275 -4 -7 -13 -13 -20 -13 -41 0 -274 -216 -408
-377 -91 -110 -121 -137 -184 -168 -47 -23 -58 -24 -170 -20 -66 3 -133 7
-150 9 -16 3 -57 8 -90 11 -33 4 -63 9 -66 11 -3 2 -39 6 -79 10 -40 3 -81 7
-90 9 -9 2 -53 6 -96 10 -139 11 -150 17 -193 103 -21 41 -21 46 -7 85 15 41
42 137 52 186 3 13 14 49 25 80 11 31 22 71 25 90 3 18 16 72 29 120 12 47 39
147 58 221 37 141 88 300 114 360 99 223 195 355 363 501 102 89 309 180 464
205 21 3 48 9 59 13 11 4 824 9 1806 10 l1786 2 23 -21z"/>
<path d="M4669 3506 c-3 -3 -31 -13 -62 -21 -31 -8 -76 -24 -101 -36 -48 -22
-137 -107 -189 -181 -73 -103 -267 -293 -362 -356 -38 -25 -72 -49 -75 -53 -3
-3 -30 -19 -60 -34 -30 -15 -66 -35 -80 -45 -14 -9 -52 -27 -85 -40 -33 -13
-65 -28 -71 -32 -27 -20 -271 -100 -374 -124 -63 -14 -135 -32 -160 -39 -25
-8 -67 -17 -95 -20 -27 -3 -57 -8 -65 -10 -8 -2 -42 -7 -75 -10 -33 -4 -67 -8
-75 -10 -106 -26 -869 -26 -970 0 -8 2 -45 7 -82 10 -37 3 -75 7 -85 9 -10 2
-38 7 -63 10 -57 8 -75 11 -125 25 -75 20 -230 42 -315 46 -123 5 -190 -19
-271 -100 -33 -33 -76 -135 -109 -260 -81 -302 -111 -415 -129 -480 -11 -39
-23 -85 -26 -103 -3 -18 -16 -65 -29 -105 -48 -149 -57 -290 -22 -369 28 -65
104 -126 194 -156 42 -14 147 -14 1842 -14 1795 -1 1848 0 1930 19 258 59 417
126 567 242 78 59 192 171 240 236 77 103 112 157 133 208 13 31 27 57 30 57
4 0 19 33 34 73 15 39 34 87 42 106 17 39 71 228 120 421 19 74 39 143 44 152
5 10 24 77 40 150 34 149 33 143 48 180 44 107 57 316 24 391 -35 80 -126 150
-217 168 -22 5 -50 10 -62 13 -12 3 -50 7 -85 11 -35 3 -81 8 -103 10 -95 11
-179 19 -295 29 -91 8 -186 18 -205 23 -41 8 -160 15 -166 9z m301 -251 c191
-17 243 -22 330 -35 36 -5 90 -12 120 -15 85 -9 115 -22 144 -64 30 -43 38
-84 24 -121 -9 -22 -145 -522 -153 -561 -12 -58 -73 -266 -111 -384 -78 -235
-167 -386 -310 -527 -70 -69 -182 -158 -198 -158 -5 0 -17 -6 -25 -14 -9 -8
-41 -24 -71 -36 -30 -12 -73 -30 -95 -40 -127 -56 14 -52 -1989 -56 -1738 -4
-1841 -3 -1859 14 -30 26 -46 72 -41 117 5 42 35 166 79 325 14 52 28 103 30
113 2 10 22 85 45 167 23 82 43 157 45 167 28 118 57 169 118 203 31 18 48 21
95 16 31 -4 75 -11 97 -17 51 -13 110 -26 155 -33 65 -10 275 -37 325 -42 28
-3 63 -10 80 -17 20 -7 142 -11 380 -12 357 0 522 6 610 24 28 6 109 20 180
31 375 60 690 169 977 338 44 26 94 55 111 65 104 61 320 267 427 407 52 68
94 108 146 135 43 23 54 24 158 20 61 -2 140 -6 176 -10z"/>
</g>
</svg>
